<svg width="18" height="19" viewBox="0 0 18 19" fill="none" xmlns="http://www.w3.org/2000/svg">
<g clip-path="url(#clip0)">
<path d="M17.7078 8.24235C16.6975 6.94709 15.389 5.87571 13.9236 5.14411C12.4278 4.39729 10.8186 4.00979 9.13875 3.98947C9.09249 3.98821 8.90672 3.98821 8.86046 3.98947C7.18062 4.00983 5.57138 4.39729 4.07556 5.14411C2.61021 5.87571 1.30174 6.94706 0.291487 8.24235C-0.0976915 8.74132 -0.0976915 9.4383 0.291487 9.93727C1.3017 11.2325 2.61021 12.3039 4.07556 13.0355C5.57138 13.7823 7.18059 14.1698 8.86046 14.1901C8.90672 14.1914 9.09249 14.1914 9.13875 14.1901C10.8186 14.1698 12.4278 13.7823 13.9236 13.0355C15.389 12.3039 16.6975 11.2326 17.7078 9.93727C18.0969 9.43823 18.0969 8.74132 17.7078 8.24235ZM4.40269 12.3804C3.03441 11.6972 1.81245 10.6967 0.868893 9.48692C0.686538 9.25309 0.686538 8.92653 0.868893 8.6927C1.81241 7.48294 3.03437 6.4824 4.40269 5.79924C4.7913 5.60525 5.18815 5.43749 5.59234 5.29546C4.55249 6.23019 3.89735 7.58483 3.89735 9.08979C3.89735 10.5948 4.55252 11.9496 5.59248 12.8843C5.18829 12.7422 4.79134 12.5744 4.40269 12.3804ZM8.99964 13.4598C6.58996 13.4598 4.62958 11.4994 4.62958 9.08976C4.62958 6.68008 6.58996 4.71974 8.99964 4.71974C11.4093 4.71974 13.3697 6.68012 13.3697 9.08979C13.3697 11.4995 11.4093 13.4598 8.99964 13.4598ZM17.1304 9.48688C16.1869 10.6966 14.9649 11.6972 13.5966 12.3803C13.2084 12.5741 12.8118 12.7411 12.4081 12.883C13.4473 11.9483 14.1019 10.5941 14.1019 9.08976C14.1019 7.58458 13.4466 6.22977 12.4066 5.29503C12.8109 5.4371 13.2079 5.60508 13.5966 5.79917C14.9649 6.48233 16.1869 7.48287 17.1304 8.69263C17.3127 8.92649 17.3127 9.25306 17.1304 9.48688Z" fill="#8C91BA"/>
<path d="M8.99986 7.21973C7.96866 7.21973 7.12973 8.05866 7.12973 9.08986C7.12973 10.1211 7.96866 10.96 8.99986 10.96C10.0311 10.96 10.87 10.1211 10.87 9.08986C10.87 8.05866 10.0311 7.21973 8.99986 7.21973ZM8.99986 10.2278C8.37243 10.2278 7.86193 9.71737 7.86193 9.08986C7.86193 8.46239 8.37236 7.95196 8.99986 7.95196C9.6273 7.95196 10.1378 8.46239 10.1378 9.08986C10.1378 9.71737 9.6273 10.2278 8.99986 10.2278Z" fill="#8C91BA"/>
</g>
<defs>
<clipPath id="clip0">
<rect width="18" height="18" transform="matrix(-1 0 0 1 18 0.0898438)" fill="white"/>
</clipPath>
</defs>
</svg>
