<svg width="11" height="13" viewBox="0 0 11 13" fill="none" xmlns="http://www.w3.org/2000/svg">
<path d="M5.44989 6.25214C6.96668 6.25214 8.1964 4.85256 8.1964 3.12609C8.1964 1.39957 7.79267 0 5.44989 0C3.10712 0 2.70331 1.39957 2.70331 3.12609C2.70331 4.85256 3.93303 6.25214 5.44989 6.25214Z" fill="#87E389"/>
<path d="M10.3692 10.9195C10.3183 7.91192 9.89916 7.05492 6.69154 6.51245C6.69154 6.51245 6.24002 7.0516 5.18762 7.0516C4.13521 7.0516 3.68361 6.51245 3.68361 6.51245C0.511001 7.04901 0.0663405 7.89329 0.00787354 10.8218C0.00307925 11.0609 0.000857515 11.0735 0 11.0457C0.00019489 11.0977 0.000428671 11.1939 0.000428671 11.3617C0.000428671 11.3617 0.764085 12.8043 5.18762 12.8043C9.61107 12.8043 10.3748 11.3617 10.3748 11.3617C10.3748 11.2539 10.3749 11.179 10.375 11.128C10.3741 11.1451 10.3724 11.1119 10.3692 10.9195Z" fill="#87E389"/>
</svg>
