<svg width="40" height="40" viewBox="0 0 40 40" fill="none" xmlns="http://www.w3.org/2000/svg">
<g clip-path="url(#clip0)">
<path d="M38.6521 10.4022C38.4348 9.77354 37.9856 9.26694 37.3874 8.97581L19.4464 0.250504C18.2114 -0.350083 16.7184 0.16597 16.1179 1.40071L15.2801 3.12222L10.3793 2.16335C9.02799 1.89907 7.71298 2.78316 7.4484 4.13449L6.82584 7.31382H3.7405C2.36721 7.31382 1.24995 8.43107 1.24995 9.80467V37.5092C1.24995 38.8828 2.36721 40 3.7405 40H23.6911C25.0644 40 26.182 38.8828 26.182 37.5092V37.5037C26.2787 37.4314 26.3605 37.3356 26.417 37.2193L38.5376 12.3053C38.8288 11.7071 38.8694 11.0312 38.6521 10.4022ZM17.5229 2.08431C17.7466 1.6241 18.3032 1.43215 18.7631 1.65584L26.1536 5.25021L16.8668 3.43289L17.5229 2.08431ZM8.9816 4.43478C9.08078 3.9288 9.57273 3.59768 10.0793 3.69686L15.5563 4.76864C15.5661 4.77078 15.5759 4.77261 15.5856 4.77444L29.6445 7.5253C29.8899 7.57322 30.1017 7.7139 30.2408 7.92112C30.3803 8.12833 30.4306 8.37736 30.3827 8.62241L26.1817 30.083V9.80467C26.1817 8.43137 25.0644 7.31382 23.6911 7.31382H8.41794L8.9816 4.43478ZM24.6195 37.5095C24.6195 38.0213 24.2029 38.4375 23.6911 38.4375H3.7405C3.22872 38.4375 2.81246 38.021 2.81246 37.5095V9.80467C2.81246 9.29288 3.22872 8.87662 3.7405 8.87662H23.6911C24.2029 8.87662 24.6195 9.29288 24.6195 9.80467V37.5095ZM37.1326 11.6217L27.5202 31.3803L31.9159 8.92271C31.9724 8.63401 31.9779 8.34379 31.9345 8.0615L36.7041 10.3811C36.9269 10.4895 37.0942 10.6784 37.1753 10.9128C37.2562 11.1468 37.2413 11.3986 37.1326 11.6217Z" fill="white"/>
<path d="M13.6072 28.8484C13.4537 28.8484 13.3002 28.8033 13.1674 28.7129C13.1045 28.6702 11.6144 27.65 10.1019 26.2266C7.96842 24.218 6.88657 22.437 6.88657 20.9331C6.88657 18.7654 8.65019 17.0021 10.8182 17.0021C11.9141 17.0021 12.9278 17.4467 13.6563 18.2094C14.382 17.4794 15.3763 17.0543 16.4413 17.0543C18.6093 17.0543 20.3729 18.8179 20.3729 20.9852C20.3729 22.4696 19.2822 24.2363 17.1313 26.2364C15.6085 27.6524 14.108 28.6714 14.0451 28.7141C13.9127 28.8039 13.7601 28.8484 13.6072 28.8484ZM10.8179 18.5643C9.5117 18.5643 8.44908 19.6269 8.44908 20.9327C8.44908 22.7537 11.4496 25.5516 13.609 27.1135C15.7846 25.5519 18.8104 22.7669 18.8104 20.9852C18.8104 19.6794 17.7475 18.6168 16.4413 18.6168C15.5527 18.6168 14.7464 19.1078 14.3368 19.8982C14.2013 20.1597 13.9285 20.3245 13.6359 20.32C13.3411 20.3172 13.0734 20.1494 12.9428 19.8851C12.5397 19.0706 11.7258 18.5643 10.8179 18.5643Z" fill="white"/>
<path d="M5.09092 13.3518C4.6594 13.3518 4.30967 13.002 4.30967 12.5705V11.394C4.30967 10.9625 4.6594 10.6128 5.09092 10.6128C5.52214 10.6128 5.87217 10.9625 5.87217 11.394V12.5705C5.87217 13.002 5.52214 13.3518 5.09092 13.3518Z" fill="white"/>
<path d="M22.341 36.5137C21.9095 36.5137 21.5598 36.164 21.5598 35.7325V34.556C21.5598 34.1245 21.9095 33.7748 22.341 33.7748C22.7722 33.7748 23.1223 34.1245 23.1223 34.556V35.7325C23.1223 36.164 22.7722 36.5137 22.341 36.5137Z" fill="white"/>
<path d="M19.773 31.9871C19.7223 31.9871 19.6713 31.9816 19.6207 31.9715C19.5706 31.9615 19.5215 31.9465 19.4748 31.927C19.4278 31.9074 19.3817 31.8833 19.3396 31.8552C19.2966 31.8269 19.2566 31.7942 19.2209 31.7582C19.1849 31.7222 19.1519 31.6825 19.1239 31.6395C19.0958 31.5974 19.0717 31.5519 19.0521 31.5043C19.0326 31.4573 19.0177 31.4082 19.0076 31.3581C18.9972 31.3084 18.9917 31.2568 18.9917 31.2058C18.9917 31.1552 18.9972 31.1036 19.0076 31.0526C19.0177 31.0035 19.0326 30.9544 19.0521 30.9068C19.0717 30.8598 19.0958 30.8146 19.1239 30.7722C19.1519 30.7294 19.1849 30.6895 19.2209 30.6535C19.2566 30.6174 19.2966 30.5848 19.3396 30.5558C19.3817 30.5277 19.4278 30.5042 19.4748 30.4847C19.5215 30.4652 19.5706 30.4496 19.6207 30.4395C19.7217 30.4191 19.8255 30.4191 19.9262 30.4395C19.9762 30.4496 20.0253 30.4652 20.0723 30.4847C20.119 30.5042 20.1645 30.5277 20.2075 30.5558C20.2496 30.5848 20.2893 30.6174 20.3262 30.6535C20.362 30.6895 20.394 30.7294 20.423 30.7722C20.4511 30.8146 20.4755 30.8598 20.495 30.9068C20.5145 30.9544 20.5292 31.0035 20.5396 31.0526C20.5496 31.1036 20.5542 31.1552 20.5542 31.2058C20.5542 31.2568 20.5496 31.3084 20.5396 31.3581C20.5292 31.4082 20.5145 31.4573 20.495 31.5043C20.4755 31.5519 20.4511 31.5974 20.423 31.6395C20.394 31.6825 20.362 31.7222 20.3262 31.7582C20.2893 31.7942 20.2496 31.8269 20.2075 31.8552C20.1645 31.8833 20.119 31.9074 20.0723 31.927C20.0253 31.9465 19.9762 31.9615 19.9262 31.9715C19.8755 31.9816 19.8245 31.9871 19.773 31.9871Z" fill="white"/>
<path d="M16.7926 31.9871H7.48595C7.05443 31.9871 6.7047 31.6373 6.7047 31.2058C6.7047 30.7743 7.05443 30.4246 7.48595 30.4246H16.7926C17.2241 30.4246 17.5739 30.7743 17.5739 31.2058C17.5739 31.6373 17.2241 31.9871 16.7926 31.9871Z" fill="white"/>
</g>
<defs>
<clipPath id="clip0">
<rect width="40" height="40" fill="white"/>
</clipPath>
</defs>
</svg>
