<svg width="6" height="10" viewBox="0 0 6 10" fill="none" xmlns="http://www.w3.org/2000/svg">
<path d="M2.0918 6.6875C2.09961 6.22266 2.15234 5.85547 2.25 5.58594C2.34766 5.31641 2.54688 5.01758 2.84766 4.68945L3.61523 3.89844C3.94336 3.52734 4.10742 3.12891 4.10742 2.70312C4.10742 2.29297 4 1.97266 3.78516 1.74219C3.57031 1.50781 3.25781 1.39062 2.84766 1.39062C2.44922 1.39062 2.12891 1.49609 1.88672 1.70703C1.64453 1.91797 1.52344 2.20117 1.52344 2.55664H0.439453C0.447266 1.92383 0.671875 1.41406 1.11328 1.02734C1.55859 0.636719 2.13672 0.441406 2.84766 0.441406C3.58594 0.441406 4.16016 0.640625 4.57031 1.03906C4.98438 1.43359 5.19141 1.97656 5.19141 2.66797C5.19141 3.35156 4.875 4.02539 4.24219 4.68945L3.60352 5.32227C3.31836 5.63867 3.17578 6.09375 3.17578 6.6875H2.0918ZM2.04492 8.54492C2.04492 8.36914 2.09766 8.22266 2.20312 8.10547C2.3125 7.98438 2.47266 7.92383 2.68359 7.92383C2.89453 7.92383 3.05469 7.98438 3.16406 8.10547C3.27344 8.22266 3.32812 8.36914 3.32812 8.54492C3.32812 8.7207 3.27344 8.86719 3.16406 8.98438C3.05469 9.09766 2.89453 9.1543 2.68359 9.1543C2.47266 9.1543 2.3125 9.09766 2.20312 8.98438C2.09766 8.86719 2.04492 8.7207 2.04492 8.54492Z" fill="#8C91BA"/>
</svg>
