<svg width="81" height="18" viewBox="0 0 81 18" fill="none" xmlns="http://www.w3.org/2000/svg">
<path d="M31.0033 3.13275C32.8582 2.54385 34.7131 1.95495 36.568 1.48383C36.568 2.89719 36.568 4.42833 36.568 5.8417C37.3629 5.8417 38.2904 5.8417 39.0853 5.8417C39.0853 6.90172 39.0853 8.07952 39.0853 9.13954C38.2904 9.13954 37.3629 9.13954 36.568 9.13954C36.568 10.3173 36.568 11.3774 36.568 12.5552C36.568 13.0263 36.8329 13.6152 37.3629 13.8508C37.8929 13.9685 38.5554 13.8508 39.0853 13.733C39.0853 14.793 39.0853 15.9708 39.0853 17.0308C37.4954 17.5019 35.9055 17.7375 34.1831 17.6197C33.1231 17.5019 32.1957 17.0308 31.6657 16.2064C31.0033 15.3819 30.8708 14.3219 30.8708 13.3796C30.8708 11.9663 30.8708 10.5529 30.8708 9.13954C30.2083 9.13954 29.5458 9.13954 28.8834 9.13954C28.8834 8.07952 28.8834 6.90172 28.8834 5.8417C29.5458 5.8417 30.2083 5.8417 30.8708 5.8417C31.0032 4.89945 30.8708 3.95721 31.0033 3.13275Z" fill="#32448C"/>
<path d="M40.5432 2.19077C42.3981 1.60187 44.3855 1.60187 46.2404 1.60187C47.9628 1.71965 49.8177 2.07299 51.1426 3.13301C52.8651 4.54638 52.9975 7.25532 51.1426 8.66869C50.6127 9.02203 50.0827 9.25759 49.5527 9.49315C50.3477 9.72871 51.1426 10.0821 51.8051 10.671C52.7326 11.6132 52.8651 13.0266 52.6001 14.2044C52.3351 15.2644 51.4076 16.2066 50.2152 16.6777C48.2278 17.62 45.8429 17.62 43.5906 17.5022C42.5306 17.3844 41.4707 17.2666 40.5432 17.0311C40.5432 15.8533 40.5432 14.6755 40.5432 13.3799C42.2656 13.851 44.253 14.2044 45.9754 13.851C47.1679 13.6155 47.3004 11.8488 46.1079 11.3776C44.9155 10.9065 43.5905 11.0243 42.3981 11.2599C42.3981 10.0821 42.3981 9.02203 42.3981 7.84422C43.3256 7.84422 44.253 7.962 45.313 7.84422C45.8429 7.72644 46.5054 7.49088 46.6379 6.90198C46.7704 6.43086 46.6379 5.95974 46.3729 5.6064C45.9754 5.25306 45.313 5.0175 44.783 5.0175C43.3256 4.89972 42.0006 5.13528 40.6757 5.6064C40.5432 4.54638 40.5432 3.36857 40.5432 2.19077Z" fill="#32448C"/>
<path d="M69.294 1.83734C73.0038 1.83734 76.7136 1.83734 80.2909 1.83734C80.2909 3.01514 80.2909 4.19295 80.2909 5.37075C78.3035 5.37075 76.3161 5.37075 74.3287 5.37075C74.3287 6.19521 74.3287 6.90189 74.3287 7.72636C75.3886 7.72636 76.5811 7.60858 77.641 7.84414C79.2309 8.31526 80.4234 9.49306 80.6884 10.9064C81.0858 12.202 80.9533 13.7332 80.1584 15.0287C79.3634 16.2065 78.0385 16.9132 76.5811 17.1488C74.0637 17.7377 71.4139 17.3843 68.8965 16.7954C68.8965 15.6176 68.8965 14.4398 68.8965 13.262C70.4864 13.6154 72.2088 13.9687 73.7987 13.4976C75.1237 13.1442 75.3886 11.3775 74.3287 10.5531C73.6662 10.082 72.8713 9.96418 72.0763 9.96418C71.1489 9.96418 70.3539 10.082 69.4265 10.1997C69.294 10.1997 69.029 10.3175 68.8965 10.4353C68.8965 10.3175 69.029 10.1997 69.029 10.082C69.294 7.4908 69.294 4.66407 69.294 1.83734Z" fill="#32448C"/>
<path d="M21.1992 14.0869C20.8017 13.8513 20.8017 13.3802 20.6692 12.9091C23.3191 12.9091 25.8364 12.9091 28.4863 12.9091C28.4863 12.0846 28.4863 11.2602 28.3538 10.4357C28.2213 9.14011 27.6913 7.72674 26.4989 6.7845C25.4389 5.84226 23.849 5.48892 22.2591 5.6067C20.2717 5.6067 18.1518 5.96004 16.6944 7.25562C15.3695 8.55121 14.972 10.3179 15.1045 12.0846C15.237 13.6158 15.767 15.2647 17.2244 16.3247C18.6818 17.5025 20.8017 17.7381 22.6566 17.7381C24.379 17.7381 26.1014 17.6203 27.6913 17.0314C27.6913 16.0891 27.6913 15.0291 27.6913 14.0869C26.3664 14.6758 24.909 14.7936 23.4516 14.7936C22.7891 14.6758 21.8616 14.558 21.1992 14.0869ZM21.1992 8.66899C21.5967 8.08008 22.7891 8.08008 23.1866 8.66899C23.584 9.25789 23.584 9.84679 23.584 10.5535C22.6566 10.5535 21.5967 10.5535 20.6692 10.5535C20.8017 9.84679 20.8017 9.14011 21.1992 8.66899Z" fill="#32448C"/>
<path d="M12.5868 6.78418C11.3944 5.60638 9.407 5.25304 7.81708 5.72416C6.88963 5.95972 6.22717 6.54862 5.5647 7.2553C5.5647 5.01748 5.5647 2.89743 5.5647 0.659607C3.7098 0.659607 1.8549 0.659607 0 0.659607C0 6.19528 0 11.8487 0 17.3844C1.72241 17.3844 3.44482 17.3844 5.29972 17.3844C5.29972 16.6777 5.29972 15.971 5.29972 15.2644C5.6972 15.971 6.09468 16.6777 6.75714 17.0311C7.81708 17.62 9.14201 17.7377 10.3344 17.5022C11.5269 17.2666 12.5868 16.5599 13.1168 15.4999C13.9118 14.0866 14.1767 12.5554 14.1767 11.0243C14.1767 9.49313 13.7793 7.96198 12.5868 6.78418ZM7.81708 13.4977C7.4196 14.0866 6.35966 14.0866 5.96218 13.4977C5.5647 12.9088 5.5647 12.3199 5.5647 11.6132C5.5647 11.0243 5.5647 10.4354 5.82969 9.84647C5.82969 9.49313 6.09468 9.13979 6.62465 9.02201C7.15462 8.90423 7.68459 9.13979 7.94958 9.49313C8.34706 10.082 8.34706 10.7887 8.34706 11.4954C8.34706 12.2021 8.21456 12.9088 7.81708 13.4977Z" fill="#32448C"/>
<path d="M67.439 9.7285C66.644 8.31514 64.9216 7.3729 63.1992 7.25512C61.7418 7.13734 60.2844 7.3729 59.0919 8.19736C59.0919 7.60846 59.2244 7.01956 59.6219 6.54843C60.1519 5.72397 61.0793 5.37063 62.0068 5.25285C63.5967 5.13507 65.1866 5.37063 66.644 5.72397C66.644 4.54617 66.644 3.36837 66.644 2.19056C64.7891 1.71944 62.8017 1.71944 60.9468 1.83722C58.8269 1.955 56.8395 2.77947 55.5146 4.19283C53.9247 5.95953 53.3947 8.19736 53.3947 10.4352C53.3947 12.2019 54.0572 14.0864 55.3821 15.4997C56.4421 16.7953 58.1645 17.6198 60.0194 17.8553C62.1393 18.0909 64.2591 17.7376 65.9816 16.5598C67.174 15.8531 67.8365 14.6753 68.1015 13.3797C68.1015 11.9663 68.1015 10.7885 67.439 9.7285ZM62.4042 13.6153C61.8743 14.4397 60.2844 14.5575 59.6219 13.8508C58.9594 13.2619 58.9594 12.3197 59.0919 11.613C59.2244 11.0241 59.6219 10.553 60.1519 10.3174C60.9468 10.0818 62.0068 10.3174 62.4042 10.9063C63.0667 11.7308 63.0667 12.7908 62.4042 13.6153Z" fill="#32448C"/>
</svg>
