<svg width="129" height="14" viewBox="0 0 129 14" fill="none" xmlns="http://www.w3.org/2000/svg">
<g clip-path="url(#clip0)">
<path d="M12.2255 1.07971H21.2214L21.4546 3.79764H20.9215C20.7216 2.66268 20.6883 2.45361 20.2218 2.0056C19.7554 1.55759 18.8558 1.61732 18.1228 1.61732H15.8238C15.6572 1.61732 15.524 1.64719 15.3907 1.76666C15.2907 1.88613 15.2241 2.03547 15.2574 2.1848V5.64941H16.257C16.7567 5.64941 17.2565 5.47021 17.5564 5.14167C17.9229 4.69366 18.1228 4.12618 18.0895 3.52883H18.6226V8.3972H18.0895C18.0562 7.59079 17.8896 7.02331 17.5564 6.6649C17.1899 6.30649 16.6901 6.12729 16.157 6.12729H15.2241V10.0399C15.2241 10.1594 15.2907 10.3087 15.3907 10.3983C15.5573 10.4879 15.7572 10.5476 15.9571 10.5178H17.7896C19.7554 10.5178 20.8882 9.9503 21.1881 7.68039H21.7545L21.5546 11.0554H12.2255V10.5178H12.7252C12.9585 10.5476 13.1917 10.4879 13.3916 10.3684C13.5249 10.249 13.5915 10.0996 13.5915 9.9503V2.15494C13.5915 2.0056 13.5582 1.85626 13.4249 1.73679C13.2916 1.64719 13.0917 1.58746 12.8918 1.58746H12.2255V1.07971Z" fill="#32448C"/>
<path d="M21.0549 4.39522H25.1197V4.8731C24.8198 4.84323 24.4866 4.90297 24.1868 4.99257C24.0535 5.0523 23.9869 5.17177 23.9869 5.29124C23.9869 5.38085 24.0202 5.50031 24.0535 5.58992L26.0193 9.5324L27.8518 5.70939C27.8851 5.64965 27.8851 5.58992 27.8851 5.50031C27.8851 5.14191 27.5186 4.93284 26.7523 4.84323V4.36536H29.8509V4.84323C29.5843 4.84323 29.3178 4.93284 29.1179 5.08217C28.918 5.20164 28.7847 5.38085 28.6847 5.58992L25.9526 11.2647H25.5195L22.5875 5.44058C22.5209 5.26138 22.3876 5.11204 22.1877 4.99257C21.8212 4.90297 21.4547 4.84323 21.0882 4.8731L21.0549 4.39522Z" fill="#32448C"/>
<path d="M32.7166 4.18587C33.6828 4.156 34.5824 4.51441 35.2487 5.17149C35.9484 5.85844 36.3149 6.78433 36.2816 7.74008C36.3149 8.39716 36.1483 9.02438 35.8151 9.62172C35.5153 10.1295 35.0821 10.5476 34.5157 10.8463C33.9493 11.145 33.3163 11.2943 32.6832 11.2943C31.7503 11.2943 30.8507 10.9359 30.2177 10.3087C28.885 8.81531 28.885 6.69473 30.2177 5.20136C30.8507 4.54428 31.7503 4.18587 32.7166 4.18587ZM32.7166 4.69362C32.1168 4.69362 31.5837 4.96242 31.2506 5.41043C30.8841 5.88831 30.6841 6.66486 30.6841 7.68035C30.6841 8.7257 30.8841 9.50226 31.2506 10.01C31.5504 10.458 32.1168 10.7567 32.7166 10.7567C33.3163 10.7567 33.8827 10.4879 34.2159 10.01C34.6157 9.53212 34.7823 8.7257 34.7823 7.62061C34.7823 6.57526 34.5824 5.85844 34.2159 5.38056C33.8827 4.96242 33.3163 4.69362 32.7166 4.69362Z" fill="#32448C"/>
<path d="M38.7141 0.960327V10.0997C38.7141 10.2192 38.7474 10.3088 38.8474 10.3984C38.9806 10.488 39.1472 10.5477 39.3471 10.5477H39.8136V11.0853H36.2152V10.5477H36.6484C36.8483 10.5477 37.0482 10.5179 37.1815 10.3984C37.3147 10.2789 37.3814 10.1296 37.3481 9.95039V2.33422C37.3814 2.15502 37.2814 1.94595 37.1481 1.82648C36.9482 1.67714 36.6817 1.58754 36.4151 1.58754H35.7488V1.04993L38.7141 0.960327Z" fill="#32448C"/>
<path d="M42.5124 4.27553V8.69589C42.4791 9.1439 42.6457 9.59191 42.9788 9.95032C43.2787 10.249 43.7118 10.3983 44.145 10.3983C44.7447 10.3983 45.2778 10.1594 45.6443 9.74125C46.0774 9.29324 46.2773 8.72576 46.2773 8.12841V5.61956C46.2773 5.41049 46.1774 5.20142 46.0108 5.08195C45.6776 4.93261 45.3111 4.84301 44.9446 4.87288V4.36514L47.5768 4.24567V9.74125C47.5768 9.95032 47.6434 10.1594 47.81 10.3386C48.0099 10.4879 48.2431 10.5477 48.4763 10.5477H48.9428V11.0255L46.4439 11.0853L46.2773 9.77111C45.9108 10.1893 45.4444 10.5477 44.9446 10.8463C44.5448 11.0853 44.045 11.2047 43.5786 11.2047C42.9455 11.2346 42.3458 10.9957 41.8793 10.6074C41.4129 10.2191 41.1797 9.53218 41.1797 8.57642V5.6793C41.213 5.44036 41.0797 5.20142 40.8465 5.08195C40.5466 4.96248 40.2134 4.90275 39.8802 4.93261V4.42487L42.5124 4.27553Z" fill="#32448C"/>
<path d="M50.4413 1.67737H50.9744V4.39529H55.5057V5.05237H50.9744V9.3234C50.9411 9.62207 51.041 9.92075 51.2743 10.1896C51.4742 10.3986 51.7407 10.4882 52.0073 10.4882C52.3738 10.4882 52.7069 10.309 52.9402 10.0402C53.24 9.59221 53.4066 9.08446 53.3733 8.54685H53.9064C53.8731 9.44287 53.6398 10.0999 53.24 10.5181C52.8402 10.9362 52.2405 11.1752 51.6074 11.1752C51.0743 11.205 50.5746 11.0258 50.1748 10.7272C49.8083 10.3986 49.6417 9.98048 49.6417 9.53247V5.05237H48.3423V4.54463C48.8753 4.4849 49.3418 4.24596 49.675 3.88755C50.2081 3.23047 50.4746 2.45392 50.4413 1.67737Z" fill="#32448C"/>
<path d="M53.9071 4.39543L56.8724 4.30582V10.0403C56.8724 10.1598 56.9058 10.2793 57.0057 10.3689C57.139 10.4585 57.3056 10.5182 57.4722 10.5182H58.0053V11.0558H54.3736V10.5182H54.84C55.0399 10.5481 55.2065 10.4884 55.3398 10.3689C55.4731 10.2494 55.5064 10.1001 55.5064 9.92088V5.85893C55.5397 5.64985 55.4397 5.41092 55.2398 5.26158C55.0399 5.11224 54.7401 5.05251 54.4735 5.05251H53.8738V4.39543H53.9071ZM55.9728 1.22949C56.2061 1.22949 56.4393 1.31909 56.6059 1.46843C56.7725 1.61777 56.8724 1.82684 56.8724 2.03591C56.8724 2.24498 56.7725 2.45405 56.6059 2.60339C56.2394 2.90206 55.7063 2.90206 55.3398 2.60339C55.0066 2.27485 55.0066 1.79697 55.3398 1.46843C55.5397 1.31909 55.7396 1.22949 55.9728 1.22949Z" fill="#32448C"/>
<path d="M61.7369 4.18587C62.7032 4.156 63.6028 4.51441 64.2691 5.17149C64.9688 5.85844 65.3353 6.78433 65.302 7.74008C65.3353 8.39716 65.1687 9.02438 64.8355 9.62172C64.5357 10.1295 64.1025 10.5476 63.5361 10.8463C62.9697 11.145 62.3367 11.2943 61.7036 11.2943C60.7707 11.2943 59.8711 10.9359 59.2381 10.3087C57.9053 8.81531 57.9053 6.69473 59.2381 5.20136C59.8711 4.54428 60.804 4.18587 61.7369 4.18587ZM61.7369 4.69362C61.1372 4.69362 60.6041 4.96242 60.2709 5.41043C59.9044 5.88831 59.7045 6.66486 59.7045 7.68035C59.7045 8.7257 59.9044 9.50226 60.2709 10.01C60.5708 10.458 61.1372 10.7567 61.7369 10.7567C62.3367 10.7567 62.9031 10.4879 63.2363 10.01C63.6361 9.53212 63.8027 8.7257 63.8027 7.62061C63.8027 6.57526 63.6028 5.85844 63.2363 5.38056C62.9364 4.96242 62.3367 4.69362 61.7369 4.69362Z" fill="#32448C"/>
<path d="M65.1353 4.395L67.6009 4.24567C67.7008 4.72354 67.8008 5.23129 67.8341 5.70916C68.134 5.26115 68.5338 4.90275 69.0002 4.63394C69.4667 4.395 69.9998 4.27553 70.5329 4.27553C70.966 4.27553 71.3992 4.36514 71.7657 4.54434C72.1322 4.75341 72.3987 5.02222 72.5653 5.38062C72.7652 5.7689 72.8652 6.21691 72.8652 6.63505V9.89059C72.8318 10.0698 72.8985 10.2789 73.0317 10.3983C73.1983 10.5178 73.4316 10.5775 73.6315 10.5477H73.8314V11.0853H70.5995V10.5477H70.6662C70.9327 10.5775 71.1659 10.5178 71.3992 10.3983C71.5324 10.2789 71.6324 10.1295 71.5991 9.95032V7.08306C71.6324 6.60518 71.4991 6.12731 71.2659 5.70916C70.966 5.29102 70.4662 5.05208 69.8998 5.08195C69.3001 5.08195 68.767 5.32089 68.4005 5.73903C67.9674 6.21691 67.7675 6.81425 67.8008 7.44147V9.92045C67.7675 10.0997 67.8341 10.3087 68.0007 10.4282C68.1673 10.5477 68.4005 10.6074 68.6338 10.5775H68.8337V11.1151H65.5018V10.5775H65.7018C65.9017 10.5775 66.1349 10.5477 66.3015 10.4282C66.4348 10.3386 66.5014 10.2191 66.5014 10.0698V5.70916C66.5347 5.47023 66.4347 5.23129 66.2348 5.05208C66.0349 4.90275 65.7684 4.81315 65.5018 4.84301H65.1353V4.395Z" fill="#32448C"/>
<path d="M83.5266 1.91614L84.1929 0.870789H84.726L85.0259 5.08208H84.5261C84.1263 3.88739 83.6598 2.99137 83.1268 2.45376C82.5603 1.82654 81.6941 1.43827 80.7612 1.4084C80.0948 1.4084 79.4284 1.5876 78.8953 1.94601C78.3289 2.33429 77.8958 2.8719 77.6625 3.49911C77.3294 4.3354 77.1961 5.26128 77.2294 6.1573C77.1961 7.02345 77.3294 7.91947 77.6625 8.75576C77.8958 9.3531 78.2956 9.89071 78.862 10.279C79.3951 10.6075 79.9948 10.7867 80.6612 10.7569C81.4608 10.8166 82.2272 10.5478 82.8269 10.0699C83.3267 9.59204 83.6265 8.93496 83.5932 8.27788V7.29226C83.5932 7.14292 83.5266 7.02345 83.3933 6.93385C83.1934 6.84425 82.9602 6.78451 82.7269 6.81438H81.7274V6.30664H86.2587V6.81438H85.9255C85.6923 6.78451 85.4923 6.84425 85.2924 6.96372C85.1592 7.05332 85.0925 7.20266 85.0925 7.38186V11.3841H84.5594C84.3595 10.7569 84.1596 10.1595 83.9597 9.59204C83.6265 10.1297 83.1268 10.5777 82.527 10.9062C81.9606 11.2049 81.3276 11.3542 80.6612 11.3542C79.695 11.3542 78.7287 11.1153 77.8958 10.6673C75.2636 9.1739 74.3974 6.09757 75.8967 3.64845C76.3631 2.84203 77.0628 2.15508 77.9291 1.67721C78.6954 1.19933 79.595 0.96039 80.5279 0.930523C81.0277 0.930523 81.4942 0.990258 81.9606 1.16946C82.527 1.28893 83.0601 1.55774 83.5266 1.91614Z" fill="#32448C"/>
<path d="M94.1887 10.5477L94.322 10.7568C94.322 11.1451 93.8222 11.0853 93.3557 11.0853C92.9892 11.0853 92.2895 11.0555 92.023 10.9061C91.7564 10.7568 91.6898 10.5477 91.4899 10.0997C91.1234 10.488 90.6569 10.8165 90.1572 11.0555C89.724 11.2347 89.2576 11.2944 88.7911 11.2944C88.1581 11.3243 87.5583 11.1749 87.0586 10.8464C86.6587 10.5776 86.4588 10.1595 86.4588 9.71145C86.4588 9.0245 86.9253 8.42715 87.8249 7.97914C88.9577 7.4714 90.1905 7.14286 91.4566 7.05325V6.03776C91.4566 5.67936 91.29 5.35082 90.9568 5.11188C90.6236 4.84307 90.1905 4.7236 89.724 4.7236C89.3242 4.7236 88.8911 4.8132 88.5246 4.99241C88.2913 5.11188 88.1581 5.26121 88.1581 5.38068C88.1914 5.50015 88.258 5.61962 88.358 5.70922C88.4912 5.85856 88.5579 6.03776 88.5912 6.21697C88.5912 6.42604 88.5246 6.60524 88.358 6.75458C88.1914 6.90392 87.9915 6.96365 87.7582 6.96365C87.4917 6.96365 87.2585 6.87405 87.0919 6.72471C86.9253 6.54551 86.8253 6.33644 86.8253 6.0975C86.8253 5.61962 87.1252 5.20148 87.7249 4.8132C88.4246 4.39506 89.2243 4.18599 90.0572 4.21586C90.7902 4.18599 91.4899 4.36519 92.0896 4.7236C92.5228 5.02228 92.7893 5.50015 92.7893 5.97803V9.59198C92.7893 9.80105 92.8226 10.04 92.9559 10.2192C93.0559 10.3387 93.1891 10.4581 93.389 10.488C93.6223 10.5179 93.9221 10.5477 94.1887 10.5477ZM91.4233 7.53113C90.0905 7.71033 89.1243 7.97914 88.5579 8.33755C88.1247 8.63622 87.8915 9.08423 87.9248 9.56211C87.8915 9.89065 88.0248 10.1893 88.258 10.4283C88.4913 10.6373 88.7911 10.7269 89.091 10.7269C89.724 10.7269 90.2904 10.488 90.7236 10.0997C91.19 9.68158 91.4233 9.08423 91.4233 8.48689V7.53113Z" fill="#32448C"/>
<path d="M93.922 4.39482L96.0544 4.27535C96.1543 4.75323 96.2543 5.23111 96.2876 5.67912C96.5875 5.23111 97.0206 4.8727 97.4871 4.57403C97.8869 4.36496 98.3534 4.24549 98.8198 4.24549C99.2863 4.21562 99.7194 4.36496 100.086 4.60389C100.486 4.93243 100.752 5.32071 100.852 5.79859C101.152 5.35058 101.552 4.93243 102.018 4.63376C102.452 4.39482 102.951 4.24549 103.451 4.24549C104.017 4.21562 104.584 4.39482 104.984 4.7831C105.45 5.32071 105.683 5.94792 105.65 6.63487V9.95014C105.617 10.0995 105.683 10.2488 105.817 10.3683C106.017 10.4878 106.25 10.5475 106.483 10.5176H106.816V11.0552H103.085V10.5176H103.451C103.684 10.5475 103.918 10.4878 104.117 10.3683C104.251 10.2488 104.317 10.0995 104.317 9.95014V6.63487C104.351 6.21673 104.217 5.79859 103.918 5.47005C103.651 5.20124 103.251 5.0519 102.851 5.0519C102.518 5.0519 102.218 5.14151 101.952 5.29084C101.685 5.47005 101.452 5.70898 101.319 5.97779C101.119 6.30633 101.019 6.66474 100.986 7.05301V9.92027C100.986 10.0696 101.019 10.2488 101.152 10.3683C101.319 10.4579 101.485 10.5176 101.685 10.5176H102.185V11.0552H98.3867V10.5176H98.8198C99.0197 10.5176 99.2529 10.4878 99.4195 10.3683C99.5528 10.2787 99.6195 10.1592 99.6195 10.0099V6.96341C99.6528 6.45567 99.5195 5.97779 99.2196 5.52978C98.9864 5.23111 98.5866 5.08177 98.1868 5.08177C97.687 5.0519 97.2205 5.26097 96.8873 5.58952C96.4542 6.06739 96.221 6.66474 96.2543 7.29195V9.95014C96.221 10.0995 96.2876 10.2488 96.4209 10.3683C96.6208 10.4878 96.854 10.5475 97.0873 10.5176H97.4871V11.0552H93.7221V10.5176H94.2885C94.4551 10.5176 94.655 10.4878 94.7883 10.3683C94.8883 10.2787 94.9549 10.1293 94.9549 10.0099V5.64925C94.9882 5.44018 94.8882 5.26097 94.755 5.11164C94.5217 4.9623 94.2219 4.8727 93.922 4.8727V4.39482Z" fill="#32448C"/>
<path d="M107.016 4.39543L109.681 4.30582V10.0403C109.681 10.1598 109.715 10.2793 109.815 10.3689C109.948 10.4585 110.115 10.5182 110.281 10.5182H111.114V11.0558H106.55V10.5182H107.649C107.849 10.5481 108.016 10.4884 108.149 10.3689C108.282 10.2494 108.315 10.1001 108.315 9.92088V5.73946C108.349 5.53039 108.249 5.29145 108.049 5.14211C107.849 4.99277 107.549 4.93304 107.283 4.93304H106.983L107.016 4.39543ZM108.782 1.22949C109.015 1.22949 109.248 1.31909 109.415 1.46843C109.582 1.61777 109.681 1.82684 109.681 2.03591C109.681 2.24498 109.582 2.45405 109.415 2.60339C109.048 2.90206 108.515 2.90206 108.149 2.60339C107.816 2.27485 107.816 1.79697 108.149 1.46843C108.349 1.31909 108.549 1.22949 108.782 1.22949Z" fill="#32448C"/>
<path d="M110.881 4.395L113.347 4.24567C113.447 4.72354 113.547 5.23129 113.58 5.70916C113.88 5.26115 114.28 4.90275 114.746 4.63394C115.212 4.395 115.746 4.27553 116.279 4.27553C116.712 4.27553 117.145 4.36514 117.511 4.54434C117.878 4.75341 118.144 5.02222 118.311 5.38062C118.511 5.7689 118.611 6.21691 118.611 6.63505V9.89059C118.578 10.0698 118.644 10.2789 118.777 10.3983C118.944 10.5178 119.177 10.5775 119.377 10.5477H119.61V11.0853H116.312V10.5477H116.379C116.645 10.5775 116.878 10.5178 117.112 10.3983C117.245 10.2789 117.345 10.1295 117.311 9.95032V7.08306C117.345 6.60518 117.212 6.12731 116.978 5.70916C116.678 5.29102 116.179 5.05208 115.612 5.08195C115.013 5.08195 114.479 5.32089 114.113 5.73903C113.68 6.21691 113.48 6.81425 113.513 7.44147V9.92045C113.48 10.0997 113.547 10.3087 113.713 10.4282C113.88 10.5477 114.113 10.6074 114.313 10.5775H114.513V11.1151H110.881V10.5775H111.381C111.581 10.5775 111.814 10.5477 111.981 10.4282C112.114 10.3386 112.18 10.2191 112.18 10.0698V5.70916C112.214 5.47023 112.114 5.23129 111.914 5.05208C111.714 4.90275 111.447 4.81315 111.181 4.84301H110.781L110.881 4.395Z" fill="#32448C"/>
<path d="M125.308 4.75355C125.841 4.27567 127.307 3.55886 127.807 3.55886C128.073 3.52899 128.34 3.58873 128.573 3.73806C128.74 3.8874 128.44 4.24581 128.44 4.45488C128.44 4.60421 128.373 4.78342 128.273 4.90289C128.173 5.02236 128.007 5.08209 127.874 5.08209C127.574 5.08209 127.374 4.90289 127.274 4.57435C127.24 4.42501 127.174 4.36528 127.074 4.36528C126.607 4.51461 126.141 4.75355 125.774 5.05222C125.974 5.2613 126.141 5.5301 126.241 5.79891C126.341 6.00798 126.374 6.24692 126.374 6.45599C126.374 6.84426 126.274 7.23254 126.041 7.56108C125.774 7.91949 125.375 8.21816 124.942 8.39737C124.475 8.6363 123.975 8.75577 123.442 8.75577H122.576C122.143 8.72591 121.743 8.78564 121.343 8.93498C121.143 9.05445 121.043 9.23365 121.043 9.44272C121.043 9.62193 121.143 9.77126 121.277 9.86086C121.576 9.98033 121.876 10.0401 122.209 10.0102L124.175 9.98033C125.175 9.98033 125.874 10.1297 126.308 10.4283C126.741 10.6971 127.007 11.175 126.974 11.6529C126.974 12.2204 126.707 12.7281 126.241 13.0865C125.541 13.6241 124.508 13.9228 123.142 13.9228C122.01 13.9228 121.143 13.7436 120.61 13.3553C120.21 13.1463 119.977 12.758 119.944 12.3697C119.944 12.071 120.11 11.8022 120.344 11.5932C120.743 11.3244 121.243 11.1452 121.743 11.0854C121.31 10.9958 120.91 10.8465 120.543 10.5777C120.277 10.3686 120.144 10.0699 120.144 9.74139C120.144 9.44272 120.277 9.17392 120.477 8.93498C120.777 8.66617 121.177 8.4571 121.576 8.33763C121.177 8.15843 120.81 7.85975 120.577 7.53121C120.344 7.20267 120.244 6.8144 120.244 6.45599C120.244 5.82877 120.543 5.23143 121.077 4.84315C121.71 4.39514 122.476 4.1562 123.276 4.18607C123.642 4.18607 124.009 4.24581 124.342 4.33541C124.675 4.42501 125.008 4.57435 125.308 4.75355ZM123.675 11.0854C122.709 11.0854 122.01 11.2049 121.576 11.4438C121.21 11.623 120.977 11.9516 120.943 12.31C120.943 12.6087 121.11 12.9073 121.41 13.0567C121.943 13.3255 122.576 13.4748 123.176 13.4151C123.875 13.4449 124.608 13.3255 125.241 12.9969C125.708 12.7281 125.941 12.4295 125.941 12.1009C125.941 11.8918 125.874 11.7126 125.741 11.5633C125.575 11.3841 125.341 11.2348 125.075 11.175C124.608 11.1153 124.142 11.0556 123.675 11.0854ZM123.209 4.63408C122.776 4.63408 122.343 4.78342 122.043 5.11196C121.71 5.47037 121.543 5.94824 121.576 6.42612C121.543 6.93387 121.71 7.41174 122.043 7.82989C122.576 8.39737 123.575 8.48697 124.209 7.97922C124.275 7.91949 124.342 7.88962 124.375 7.82989C124.708 7.44161 124.875 6.93387 124.842 6.45599C124.875 5.97811 124.708 5.50023 124.375 5.14183C124.109 4.81329 123.675 4.63408 123.209 4.63408Z" fill="#32448C"/>
<path d="M128.073 3.61884C128.306 3.61884 128.54 3.70844 128.706 3.85777C128.873 4.00711 128.973 4.21618 128.973 4.42525C128.973 4.63432 128.873 4.8434 128.706 4.99273C128.34 5.29141 127.807 5.29141 127.44 4.99273C127.107 4.66419 127.107 4.18631 127.44 3.85777C127.64 3.67857 127.84 3.61884 128.073 3.61884Z" fill="#32448C"/>
<path d="M9.06092 11.145H8.89433V10.9061H8.96097C9.0276 10.9061 9.06092 10.9061 9.12756 10.9061C9.16088 10.936 9.1942 10.9658 9.1942 10.9957C9.22751 11.0853 9.16088 11.1152 9.06092 11.145C9.06092 11.1152 9.06092 11.1152 9.06092 11.145ZM9.36079 11.0256C9.36079 10.9658 9.32747 10.8762 9.26083 10.8464C9.1942 10.7866 9.09424 10.7866 8.99429 10.7866H8.72774V11.5632H8.89433V11.2645H9.02761L9.1942 11.5632H9.36079L9.16088 11.2645C9.32747 11.2048 9.39411 11.1152 9.36079 11.0256ZM9.06092 11.7723C8.69442 11.7723 8.39456 11.5034 8.39456 11.1749C8.39456 10.8464 8.69442 10.5776 9.06092 10.5776C9.42742 10.5776 9.72729 10.8464 9.72729 11.1749C9.72729 11.5034 9.42742 11.7723 9.06092 11.7723ZM9.06092 10.4282C8.59447 10.4282 8.22797 10.7568 8.22797 11.1749C8.22797 11.593 8.59447 11.9216 9.06092 11.9216C9.52738 11.9216 9.89388 11.593 9.89388 11.1749C9.89388 10.7568 9.49406 10.4282 9.06092 10.4282Z" fill="#32448C"/>
<path d="M0.298004 0.751098C4.26287 -1.16041 9.39388 0.840699 9.76038 5.6792C2.43037 6.18695 1.53078 3.23008 0.298004 0.751098Z" fill="#32448C"/>
<path d="M0.298004 11.0855C4.26287 12.997 9.36056 10.966 9.76038 6.15736C2.43037 5.61975 1.53078 8.60648 0.298004 11.0855Z" fill="#32448C"/>
<path d="M8.39433 2.2449C6.4952 0.0347171 3.0301 -0.622363 0.298004 0.751532C1.39751 2.96171 2.23046 5.59003 7.66133 5.73937C8.3277 4.69401 8.59424 3.46946 8.39433 2.2449ZM1.63073 8.6365C1.79732 8.6365 1.9306 8.66636 2.09719 8.66636C4.22956 8.66636 6.19533 7.71061 7.39479 6.12764C4.1296 6.27698 2.59696 7.32234 1.63073 8.6365Z" fill="#32448C"/>
</g>
<defs>
<clipPath id="clip0">
<rect x="0.298004" y="0.0345459" width="128.675" height="13.8883" fill="white"/>
</clipPath>
</defs>
</svg>
