<svg width="77" height="17" viewBox="0 0 77 17" fill="none" xmlns="http://www.w3.org/2000/svg">
    <g clip-path="url(#clip0)">
        <path d="M9.46411 0.0452271C4.25068 0.0452271 0.0245056 3.83367 0.0245056 8.52265C0.0245056 9.36108 0.163069 10.184 0.440194 10.9758C0.613398 10.7585 0.786602 10.5411 0.942485 10.3237C1.60066 9.45424 2.24151 8.58476 2.88237 7.69975L3.35002 7.03212C3.5059 6.81475 3.66178 6.58185 3.80035 6.36448C4.11211 5.91421 4.40656 5.46395 4.68368 5.01368C4.82225 4.78079 4.96081 4.56342 5.11669 4.33052C5.27258 4.09762 5.39382 3.88025 5.53238 3.64736C5.67095 3.41446 5.80951 3.18156 5.93075 2.96419L6.3118 2.26551L6.34644 2.21893C6.55428 1.84629 7.05657 1.69103 7.48958 1.86182C7.80135 2.01708 7.99188 2.31208 7.97455 2.63814C7.97455 3.04183 7.88795 3.46104 7.85331 3.86473C7.81867 4.26841 7.80135 4.68763 7.76671 5.10684C7.73207 5.92974 7.71475 6.76817 7.71475 7.59107C7.71475 8.41397 7.76671 9.23687 7.85331 10.0287C7.90527 10.4169 7.97455 10.805 8.06116 11.1932C8.13044 11.5348 8.25168 11.8764 8.42488 12.1869C8.47684 12.28 8.54613 12.3732 8.63273 12.4508C8.68469 12.4819 8.65005 12.4664 8.68469 12.4664C8.71933 12.4664 8.70201 12.4664 8.71933 12.4664L8.75397 12.4508H8.77129L8.82325 12.4353C8.84057 12.4198 8.87521 12.4043 8.89253 12.3887C9.0311 12.2956 9.15234 12.1869 9.27358 12.0627C9.55071 11.7677 9.81051 11.4727 10.0357 11.1466C10.2782 10.8206 10.5033 10.4635 10.7285 10.1063C11.1788 9.39213 11.5945 8.66239 11.9929 7.91712C12.1834 7.54449 12.3912 7.17185 12.5818 6.79922C12.7723 6.42659 12.9628 6.03843 13.136 5.66579C13.3092 5.27763 13.8115 5.09131 14.2445 5.24658C14.5217 5.33974 14.7122 5.55711 14.7641 5.82106C14.7641 5.91421 14.7815 6.03843 14.7988 6.16264L14.8334 6.51974C14.8681 6.75264 14.9027 6.98554 14.9547 7.21843C15.0413 7.68423 15.1452 8.15002 15.2837 8.60028C15.4223 9.05055 15.5955 9.50082 15.8034 9.93556C16.0112 10.3703 16.271 10.774 16.6001 11.1466C16.6694 11.2398 16.6521 11.364 16.5655 11.4261C16.4789 11.4882 16.3576 11.4882 16.2883 11.4261C15.8553 11.0845 15.4743 10.6964 15.1452 10.2771C14.8161 9.85792 14.539 9.40766 14.2792 8.95739C14.106 8.64686 13.9674 8.33634 13.8115 8.02581C13.7076 8.21212 13.621 8.39844 13.5171 8.56923C13.1014 9.33003 12.6857 10.0908 12.2007 10.8516C11.9756 11.2242 11.7331 11.5969 11.4559 11.9695C11.1788 12.3577 10.8671 12.7303 10.538 13.0719C10.3474 13.2737 10.1223 13.4445 9.89711 13.6153C9.82783 13.6619 9.75855 13.7085 9.67195 13.7395L9.51607 13.8172L9.42947 13.8482H9.41214L9.36018 13.8637H9.32554L9.25626 13.8793C9.2043 13.8948 9.16966 13.9103 9.1177 13.9103C9.01378 13.9258 8.90985 13.9414 8.80593 13.9569C8.58077 13.9724 8.33828 13.9414 8.13044 13.8793C7.92259 13.8172 7.73207 13.7085 7.55887 13.5843C7.29906 13.3824 7.07389 13.134 6.91801 12.8545C6.67553 12.4198 6.50232 11.954 6.3984 11.4727C6.29448 11.0379 6.2252 10.5877 6.17324 10.1529C6.06931 9.28345 6.03467 8.42949 6.01735 7.56001C6.01735 7.15633 6.01735 6.73711 6.01735 6.33343C5.84415 6.62843 5.67095 6.92343 5.49774 7.20291C5.35918 7.4358 5.22062 7.6687 5.06473 7.9016L4.63172 8.60028C4.04283 9.53187 3.43662 10.4479 2.79576 11.364C2.3974 11.954 1.98171 12.544 1.56602 13.1185C4.42388 17.0311 10.2782 18.118 14.6429 15.5561C19.0076 12.9943 20.2201 7.74633 17.3622 3.83367C15.6128 1.48918 12.6511 0.0452271 9.46411 0.0452271Z" fill="#32448C"/>
        <path d="M27.0791 11.5659V5.94535H26.9233L24.9141 11.5659H24.4118L22.4026 5.94535H22.2468V11.5659H21.4154V5.35535H22.8876L24.6716 10.2928L26.421 5.35535H27.9105V11.5814H27.0791V11.5659Z" fill="#32448C"/>
        <path d="M29.1228 6.16272V5.35535H30.0235V6.16272H29.1228ZM29.1402 11.5659V6.76825H30.0235V11.5659H29.1402Z" fill="#32448C"/>
        <path d="M35.3755 9.99758C35.3755 10.9292 34.9771 11.6434 33.2451 11.6434C31.0627 11.6434 30.9414 10.5255 30.9414 9.15915C30.9414 7.79283 31.0627 6.67493 33.2451 6.67493C34.9771 6.67493 35.3755 7.38914 35.3755 8.32073H34.5441C34.5441 7.55993 34.2496 7.1873 33.2451 7.1873C31.8941 7.1873 31.8248 7.83941 31.8248 9.14363C31.8248 10.4478 31.8941 11.1 33.2451 11.1C34.2496 11.1 34.5441 10.7273 34.5441 9.96653L35.3755 9.99758Z" fill="#32448C"/>
        <path d="M37.0899 7.28053C37.5056 7.04764 38.0425 6.73711 38.5448 6.72158C38.6487 6.70605 38.7527 6.70605 38.8566 6.70605C38.9952 6.70605 39.1164 6.70605 39.2723 6.72158L39.203 7.29606C39.0644 7.28053 38.9432 7.28053 38.8219 7.28053C38.718 7.28053 38.6141 7.28053 38.4929 7.29606C38.0252 7.31158 37.5229 7.62211 37.1592 7.80843V11.5813H36.2758V6.76816H36.9687L37.0899 7.28053Z" fill="#32448C"/>
        <path d="M44.2257 9.17465C44.2257 10.541 44.1044 11.6589 41.8874 11.6589C39.6704 11.6589 39.5492 10.541 39.5492 9.17465C39.5492 7.80833 39.6704 6.69043 41.8874 6.69043C44.1044 6.69043 44.2257 7.80833 44.2257 9.17465ZM40.4325 9.17465C40.4325 10.4789 40.5018 11.131 41.8874 11.131C43.2731 11.131 43.3423 10.4944 43.3423 9.17465C43.3423 7.85491 43.2731 7.21833 41.8874 7.21833C40.5018 7.21833 40.4325 7.85491 40.4325 9.17465Z" fill="#32448C"/>
        <path d="M45.8368 12.6836C46.1659 12.7147 46.5989 12.7302 47.0839 12.7302C48.4349 12.7302 48.6081 12.4042 48.6254 11.131C48.227 11.3328 47.6728 11.5657 47.1012 11.5813C45.144 11.6123 45.0228 10.6652 45.0228 9.17466C45.0228 7.68412 45.1267 6.69043 47.0146 6.69043C47.6555 6.69043 48.2443 6.95438 48.712 7.21833L48.7986 6.78359H49.4914V11.0378C49.4914 12.7613 49.0584 13.2892 47.2917 13.2892C46.7721 13.2892 46.2525 13.2426 45.7502 13.1805L45.8368 12.6836ZM48.6254 7.65307C48.2443 7.4357 47.7594 7.21833 47.2917 7.21833C45.9927 7.21833 45.9061 7.87044 45.9061 9.17466C45.9061 10.4478 45.9927 11.0534 47.2917 11.0534C47.7594 11.0534 48.2617 10.8205 48.6254 10.6497V7.65307Z" fill="#32448C"/>
        <path d="M54.2897 11.5657L54.2031 11.131C53.7701 11.3794 53.1985 11.6589 52.5749 11.6589C50.6177 11.6899 50.4965 10.6962 50.4965 9.17466C50.4965 7.65307 50.6004 6.69043 52.5403 6.69043C53.1812 6.69043 53.7527 6.95438 54.1857 7.18728L54.2724 6.76806H54.9652V11.5657H54.2897ZM54.1165 7.62201C53.7527 7.4357 53.2504 7.21833 52.7828 7.21833C51.4838 7.21833 51.3972 7.87044 51.3972 9.17466C51.3972 10.4789 51.4838 11.131 52.7828 11.131C53.2504 11.131 53.7354 10.8981 54.1165 10.6962V7.62201Z" fill="#32448C"/>
        <path d="M56.8352 7.18741C57.2336 6.97004 57.7705 6.70609 58.3421 6.69056C59.2427 6.65951 59.7104 6.87688 59.9355 7.21846C60.3512 6.98557 60.9055 6.70609 61.5117 6.69056C63.3476 6.64399 63.4516 7.48241 63.4516 8.64689V11.5659H62.5682V8.69347C62.5682 7.69978 62.4989 7.21846 61.3038 7.21846C60.8708 7.21846 60.4205 7.45136 60.0568 7.6532C60.1434 7.99478 60.178 8.35189 60.1607 8.709V11.5814H59.3986V8.69347C59.3986 7.69978 59.3293 7.21846 58.1342 7.21846C57.7185 7.21846 57.2682 7.45136 56.9218 7.62215V11.5659H56.0385V6.7682H56.7313L56.8352 7.18741Z" fill="#32448C"/>
        <path d="M64.56 6.16272V5.35535H65.4606V6.16272H64.56ZM64.5773 11.5659V6.76825H65.4606V11.5659H64.5773Z" fill="#32448C"/>
        <path d="M67.3316 7.18742C67.7646 6.97005 68.3362 6.7061 68.9597 6.69057C70.9169 6.64399 71.0381 7.48242 71.0381 8.6469V11.5659H70.1548V8.69348C70.1548 7.69979 70.0682 7.21847 68.7692 7.21847C68.3015 7.21847 67.7992 7.45136 67.4355 7.63768V11.5814H66.5522V6.7682H67.245L67.3316 7.18742Z" fill="#32448C"/>
        <path d="M72.7527 12.6836C73.0817 12.7147 73.5148 12.7302 73.9997 12.7302C75.3507 12.7302 75.5239 12.4042 75.5412 11.131C75.1429 11.3328 74.5886 11.5657 74.017 11.5813C72.0598 11.6123 71.9386 10.6652 71.9386 9.17466C71.9386 7.68412 72.0425 6.69043 73.9304 6.69043C74.5713 6.69043 75.1602 6.95438 75.6278 7.21833L75.7144 6.78359H76.4073V11.0378C76.4073 12.7613 75.9742 13.2892 74.2076 13.2892C73.688 13.2892 73.1683 13.2426 72.6661 13.1805L72.7527 12.6836ZM75.5239 7.65307C75.1429 7.4357 74.6579 7.21833 74.1902 7.21833C72.8912 7.21833 72.8046 7.87044 72.8046 9.17466C72.8046 10.4478 72.8912 11.0534 74.1902 11.0534C74.6579 11.0534 75.1602 10.8205 75.5239 10.6497V7.65307Z" fill="#32448C"/>
    </g>
<defs>
<clipPath id="clip0">
<rect x="0.0245056" y="0.0452271" width="76.3655" height="16.9238" fill="white"/>
</clipPath>
</defs>
</svg>
