<svg width="91" height="22" viewBox="0 0 91 22" fill="none" xmlns="http://www.w3.org/2000/svg">
<path d="M32.8386 6.06646C31.7857 6.06646 30.7592 6.33737 29.9433 6.83182C28.8248 7.49122 28.1405 8.53911 28.1667 9.57538C28.1536 11.4121 28.1536 14.7796 28.1536 15.8511H30.7067V12.2717L31.2067 12.4248C31.891 12.6367 32.5753 12.7427 33.2332 12.7427C33.8782 12.7427 34.4703 12.6367 35.0098 12.4365C36.0494 12.0598 36.8522 11.2708 37.1944 10.3289C37.5103 9.29273 37.2601 8.19773 36.5496 7.47948C35.6546 6.58467 34.3124 6.06646 32.8386 6.06646ZM35.1809 9.78731V9.8108C34.9704 10.6468 34.1018 11.2119 32.9964 11.2119C31.9436 11.2119 31.0751 10.7056 30.7856 9.9285C30.654 9.59887 30.6803 9.24562 30.8778 8.91599C31.1146 8.492 31.5883 8.15062 32.1147 7.99755C32.3516 7.91507 32.628 7.87984 32.9043 7.87984C33.628 7.87984 34.3388 8.15062 34.7598 8.57447C35.102 8.92773 35.2467 9.33984 35.1809 9.78731ZM39.6157 11.9067C40.5107 12.5896 41.7081 12.9546 42.9583 12.9546C43.2742 12.9546 43.5769 12.9311 43.8795 12.884H43.9585C44.8533 12.884 45.7745 12.8957 46.6562 12.8957H47.4327C47.4195 12.3659 47.4327 11.836 47.4327 11.3179C47.4327 10.6939 47.4327 10.0463 47.4195 9.42231C47.4195 8.69218 47.0116 7.92695 46.314 7.31466C45.4192 6.52568 44.1163 6.06646 42.761 6.06646C41.6556 6.06646 40.6027 6.3726 39.7737 6.9143C38.813 7.53833 38.2604 8.492 38.2997 9.41043V9.43406C38.2471 10.3289 38.7472 11.2473 39.6157 11.9067ZM40.4974 9.0102C40.7344 8.53911 41.2608 8.13888 41.8267 7.99755C42.088 7.91165 42.3642 7.86778 42.6425 7.86796C43.7348 7.86796 44.8797 8.50388 44.906 9.57538V9.62236C44.7875 10.3877 43.9979 11.2237 42.5768 11.2237C41.6556 11.2237 40.866 10.8116 40.5107 10.1641C40.3132 9.82254 40.3132 9.39869 40.4974 9.0102ZM59.3948 15.8628H61.0793V14.344V12.2717L61.5793 12.4483C62.1979 12.6602 62.8822 12.778 63.5401 12.778C64.7903 12.778 65.8957 12.3894 66.6589 11.6948C67.8171 10.6704 68.0407 8.98658 67.1722 7.84448C66.3563 6.7376 64.8692 6.09008 63.1979 6.09008C62.3558 6.09008 61.5267 6.26664 60.8161 6.59641C59.6449 7.11448 58.4869 8.25658 58.5395 9.62236C58.5526 10.5644 58.5526 11.5181 58.5395 12.4365C58.5262 13.5786 58.5131 14.7444 58.5526 15.8982C58.8026 15.8628 59.0659 15.8628 59.3948 15.8628ZM61.2767 8.90411C61.5399 8.45677 62.0399 8.10351 62.6058 7.98581C62.8317 7.92318 63.0668 7.89141 63.3032 7.89159C64.0007 7.89159 64.7114 8.15062 65.1456 8.57447C65.4878 8.91598 65.6589 9.32809 65.6062 9.77543V9.82254C65.3825 10.6704 64.5008 11.2356 63.3954 11.2356C62.3953 11.2356 61.5399 10.7646 61.2109 10.0345C61.0267 9.66947 61.0661 9.26924 61.2767 8.90411ZM73.8442 12.0362C74.4759 12.4365 75.4892 12.9075 76.6735 12.9075H76.8577C77.4894 12.884 78.1606 12.8721 79.0291 12.8721H81.4636C81.4505 12.3031 81.4505 11.7339 81.4636 11.1648C81.4636 10.5879 81.4769 9.99924 81.4636 9.42231C81.4505 8.63333 80.9899 7.82085 80.2003 7.18508C79.3055 6.47857 78.0684 6.07834 76.792 6.07834C75.6997 6.07834 74.6469 6.3726 73.8179 6.92604C72.8572 7.55007 72.2913 8.50388 72.3309 9.43406V9.45754C72.2913 10.3995 72.8704 11.3886 73.8442 12.0362ZM74.5416 9.02195C74.7785 8.53911 75.305 8.13888 75.8972 7.99755C76.134 7.91507 76.3971 7.87984 76.6868 7.87984C77.4105 7.87984 78.1211 8.15062 78.5423 8.5981C78.8712 8.95122 79.0029 9.3752 78.9238 9.82254V9.84616C78.6212 10.8116 77.5685 11.2356 76.6473 11.2356C75.7261 11.2356 74.9365 10.8352 74.5812 10.1875C74.3443 9.82254 74.3443 9.41043 74.5416 9.02195ZM68.7908 12.8721C68.8041 11.2119 68.8041 9.52828 68.7908 7.90333V4.04128C69.3041 4.02954 69.8042 4.02954 70.1859 4.02954H71.3439V7.58544C71.3308 9.31621 71.3308 11.106 71.357 12.8721H68.7908ZM53.1966 7.90333C52.5912 7.90333 52.0517 8.06815 51.6438 8.38603C51.3411 8.58622 50.999 8.98658 51.0252 9.78731V12.9075H48.4459C48.4459 12.1775 48.4459 10.4113 48.4592 9.42231C48.4723 8.65695 48.9198 7.84448 49.683 7.22044C50.5778 6.49045 51.8411 6.06646 53.144 6.06646C53.3677 6.06646 53.5782 6.07834 53.7888 6.10182L53.8152 7.96218C53.6046 7.91507 53.4072 7.90333 53.1966 7.90333ZM54.9468 6.09008H57.4999V7.90333H54.9468V6.09008ZM88.0172 6.59641H90.1622V13.8377C89.9649 14.8974 89.2937 15.7805 88.3725 16.2161C87.4646 16.6636 86.3723 16.9109 85.1879 16.9109C84.8721 16.9109 84.5431 16.8991 84.2272 16.8637C84.2536 16.228 84.2405 15.6038 84.2272 15.0269C84.4676 15.0501 84.7092 15.0619 84.951 15.0622C85.9511 15.0622 86.7803 14.8386 87.412 14.3911C88.0699 13.9554 88.0568 13.1783 88.0568 12.9311V12.5542L87.6357 12.6013L87.504 12.6131C87.1356 12.6484 86.767 12.6956 86.4117 12.6956C86.096 12.6956 85.8327 12.6602 85.5827 12.6013H85.5563C84.1614 12.2952 83.0298 11.2237 82.727 9.9285C82.6086 9.50465 82.635 7.80911 82.6743 6.60815H84.8984C84.8853 7.30278 84.8721 8.89236 84.9379 9.79905C84.9906 10.4585 85.688 11.0236 86.4513 11.0236C86.6092 11.0236 86.7539 11 86.8856 10.9529C87.5435 10.7646 88.0172 10.1875 88.0041 9.56351C88.0304 8.72755 88.0304 7.25581 88.0172 6.59641ZM54.9468 8.92773H57.4999V12.884H54.9468V8.92773Z" fill="#32448C"/>
<path d="M70.2113 4.10905H71.3693V7.66495C71.3562 9.39572 71.3562 11.1855 71.3825 12.9516H68.8295C68.8426 11.2914 68.8426 9.60779 68.8295 7.98284V4.12079C69.3164 4.10905 69.8165 4.10905 70.2113 4.10905ZM63.2102 6.13423C64.8815 6.13423 66.3555 6.79363 67.1845 7.88862C68.053 9.03073 67.8294 10.7145 66.6712 11.7389C65.908 12.4454 64.8026 12.8222 63.5524 12.8222C62.8945 12.8222 62.2101 12.7045 61.5916 12.4925L61.0916 12.3158V15.9071H58.5649C58.5254 14.7531 58.5385 13.5758 58.5518 12.4454C58.5649 11.527 58.5649 10.5732 58.5518 9.63127C58.4992 8.2655 59.6572 7.13514 60.8284 6.60519C61.5389 6.31092 62.3681 6.13423 63.2102 6.13423ZM63.3813 11.3151C64.4869 11.3151 65.3685 10.7499 65.5922 9.90205V9.85494C65.6316 9.4076 65.4738 8.99549 65.1317 8.65398C64.6973 8.23013 63.9999 7.9711 63.2893 7.9711C63.0392 7.9711 62.8156 8.00646 62.5918 8.06532C62.0391 8.18302 61.5258 8.53628 61.2627 8.98362C61.0521 9.34875 61.0259 9.74898 61.1837 10.114C61.5258 10.8322 62.3812 11.3151 63.3813 11.3151ZM53.1563 6.13423C53.38 6.13423 53.5905 6.14597 53.8011 6.16959L53.8275 8.02995C53.6169 7.99458 53.4063 7.98284 53.2089 7.98284C52.6035 7.98284 52.064 8.14766 51.6561 8.46555C51.3534 8.66573 51.0113 9.06609 51.0375 9.86682V12.987H48.4582C48.4582 12.257 48.4582 10.4909 48.4715 9.50182C48.4846 8.73646 48.932 7.92399 49.6953 7.29995C50.5901 6.55808 51.8534 6.13423 53.1563 6.13423ZM32.8509 6.14597C34.3247 6.14597 35.6669 6.66418 36.5356 7.57073C37.2462 8.28899 37.4962 9.38398 37.1804 10.4201C36.8382 11.3622 36.0224 12.151 34.9959 12.5278C34.4562 12.728 33.8641 12.8339 33.2193 12.8339C32.5614 12.8339 31.877 12.728 31.1927 12.516L30.6926 12.363V15.9423H28.1396C28.1396 14.871 28.1396 11.4916 28.1528 9.66664C28.1265 8.6305 28.8107 7.58248 29.9294 6.92321C30.7715 6.41688 31.798 6.14597 32.8509 6.14597ZM33.0087 11.3032C34.1141 11.3032 34.9827 10.7381 35.1932 9.90205V9.87856C35.2458 9.43109 35.1012 9.01898 34.7721 8.67761C34.3511 8.25362 33.6403 7.98284 32.9166 7.98284C32.6271 7.98284 32.3639 8.01821 32.127 8.10055C31.6006 8.24188 31.1269 8.59513 30.8901 9.01898C30.7057 9.34875 30.6663 9.70187 30.7979 10.0316C31.0874 10.797 31.9559 11.3032 33.0087 11.3032ZM76.8043 6.14597C78.0807 6.14597 79.3178 6.54633 80.2126 7.25284C81.0022 7.88862 81.4628 8.70109 81.4759 9.48994C81.4892 10.067 81.4892 10.6674 81.4759 11.2326V12.9399H79.0414C78.1729 12.9399 77.5017 12.9516 76.87 12.9752H76.6858C75.5015 12.9752 74.4882 12.5043 73.8565 12.1039C72.8695 11.4563 72.2905 10.4672 72.3432 9.51357V9.48994C72.2905 8.55976 72.8695 7.6061 73.8302 6.98206C74.6461 6.44037 75.6989 6.14597 76.8043 6.14597ZM76.6332 11.3268C77.5544 11.3268 78.6072 10.8911 78.9099 9.93742V9.91393C78.9888 9.46646 78.8572 9.0426 78.5282 8.68935C78.1071 8.24188 77.3965 7.9711 76.6727 7.9711C76.3963 7.9711 76.1332 8.01821 75.8831 8.0888C75.304 8.23013 74.7777 8.6305 74.5277 9.1132C74.3302 9.50182 74.3435 9.92567 74.5408 10.2789C74.9225 10.9147 75.712 11.3268 76.6332 11.3268ZM42.7733 6.14597C44.1286 6.14597 45.4315 6.59344 46.3263 7.39417C47.0239 8.00646 47.4318 8.77169 47.4318 9.50182C47.445 10.1376 47.445 10.7734 47.445 11.3974V12.9752H46.6685C45.7868 12.9752 44.8787 12.9752 43.9708 12.9635H43.8918C43.5891 13.0106 43.2732 13.0341 42.9706 13.0341C41.7073 13.0341 40.523 12.6574 39.628 11.9862C38.7595 11.3268 38.2594 10.4084 38.2989 9.52531V9.50182C38.2594 8.58339 38.8122 7.62959 39.7729 7.00555C40.6019 6.45211 41.6679 6.14597 42.7733 6.14597ZM42.5891 11.3268C44.0102 11.3268 44.7867 10.5026 44.9183 9.72549V9.67838C44.892 8.60687 43.7471 7.9711 42.6548 7.9711C42.3653 7.9711 42.0889 8.01821 41.839 8.10055C41.2731 8.24188 40.7467 8.64224 40.5097 9.1132C40.3124 9.50182 40.3124 9.91393 40.523 10.2789C40.8783 10.9147 41.6679 11.3268 42.5891 11.3268ZM57.5122 6.16959V7.98284H54.9591V6.16959H57.5122ZM90.1745 6.67592V13.9172C89.9772 14.9769 89.306 15.86 88.3848 16.2956C87.4769 16.7431 86.3846 16.9904 85.2002 16.9904C84.8844 16.9904 84.5554 16.9786 84.2395 16.9433C84.2659 16.3075 84.2528 15.6833 84.2395 15.1064C84.4799 15.1296 84.7215 15.1414 84.9633 15.1418C85.9634 15.1418 86.7926 14.9181 87.4243 14.4706C88.0822 14.0349 88.0691 13.2578 88.0691 13.0106V12.6337L87.648 12.6808L87.5163 12.6926C87.1479 12.728 86.7793 12.7751 86.424 12.7751C86.1083 12.7751 85.845 12.7397 85.595 12.6808H85.5686C84.1737 12.3747 83.0421 11.3032 82.7393 10.008C82.6209 9.58416 82.6473 7.88862 82.6866 6.68766H84.9107C84.8976 7.38229 84.8844 8.97187 84.9502 9.87856C85.0029 10.538 85.7003 11.1031 86.4636 11.1031C86.6215 11.1031 86.7662 11.0795 86.8979 11.0324C87.5558 10.8441 88.0295 10.267 88.0164 9.64302C88.0295 8.80706 88.0295 7.33532 88.0295 6.67592H90.1745ZM57.5122 9.00724V12.9635H54.9591V9.00724H57.5122ZM70.2113 3.77942C69.8296 3.77942 69.3296 3.77942 68.8031 3.79116H68.4347V13.2931H71.7377V12.9516C71.7115 11.1855 71.7246 9.39572 71.7246 7.67669C71.7246 6.5111 71.7377 5.31001 71.7246 4.12079V3.79116H70.9745C70.7114 3.77942 70.4613 3.77942 70.2113 3.77942ZM63.2102 5.80459C62.3023 5.80459 61.4205 5.9929 60.6573 6.34615C59.3808 6.91133 58.1175 8.15953 58.1701 9.67838C58.1833 10.6086 58.1701 11.5624 58.1701 12.4807C58.157 13.6228 58.1439 14.8002 58.1833 15.966L58.1964 16.2956H61.46V15.966V14.4352V12.8457C62.118 13.0695 62.8418 13.1872 63.5524 13.1872C64.9079 13.1872 66.1055 12.7633 66.9345 11.998C68.2241 10.8676 68.4742 8.98362 67.5004 7.7238C66.6055 6.5111 65 5.80459 63.2102 5.80459ZM63.3813 10.9736C62.5392 10.9736 61.8153 10.5851 61.5522 9.98453C61.4338 9.71375 61.4469 9.4076 61.618 9.13669C61.8285 8.77169 62.2365 8.48917 62.6971 8.3832H62.7234C62.9076 8.33609 63.1051 8.30073 63.3024 8.30073C63.9078 8.30073 64.5 8.52453 64.8684 8.87765C65.1448 9.14857 65.2632 9.46646 65.237 9.81971C65.0526 10.5143 64.3158 10.9736 63.3813 10.9736ZM53.1563 5.80459C51.7614 5.80459 50.4058 6.25207 49.4453 7.05266C48.603 7.74743 48.116 8.6305 48.1029 9.48994C48.0898 10.479 48.0898 12.257 48.0898 12.9752V13.3049H51.4061V12.9752V9.85494C51.3928 9.33687 51.5508 8.94838 51.8798 8.73646L51.8929 8.72458L51.906 8.71284C52.2482 8.4538 52.6957 8.31247 53.222 8.31247C53.4063 8.31247 53.5905 8.32435 53.7748 8.35958L54.2221 8.43031V8.01821L54.1959 6.15785V5.86345L53.8668 5.82808C53.6169 5.81634 53.38 5.80459 53.1563 5.80459ZM32.8509 5.80459C31.7191 5.80459 30.6268 6.09899 29.7451 6.62881C28.5212 7.34706 27.7844 8.51265 27.7975 9.65489C27.7844 11.4916 27.7844 14.9181 27.7844 15.9306V16.2604H31.0743V15.9306V12.8222C31.798 13.0458 32.5218 13.1637 33.2193 13.1637C33.9036 13.1637 34.5484 13.0458 35.1405 12.8339C36.2723 12.4218 37.1671 11.5624 37.5357 10.5261V10.5026C37.8778 9.36049 37.6015 8.14766 36.8118 7.34706C35.8775 6.36977 34.43 5.80459 32.8509 5.80459ZM33.0087 10.9736C32.1139 10.9736 31.39 10.5615 31.1532 9.92567C31.0479 9.67838 31.0743 9.41935 31.219 9.16031C31.4164 8.8188 31.798 8.53628 32.2323 8.41857H32.2586C32.456 8.34784 32.6798 8.32435 32.9166 8.32435C33.535 8.32435 34.1405 8.54802 34.4957 8.90128C34.759 9.17205 34.8774 9.48994 34.8248 9.8432C34.6668 10.5143 33.9299 10.9736 33.0087 10.9736ZM76.8043 5.81634C75.6331 5.81634 74.5013 6.13423 73.6065 6.72303C72.5538 7.40592 71.9221 8.47742 71.9748 9.51357C71.9221 10.5732 72.5538 11.6801 73.6328 12.3864C74.3171 12.8222 75.3962 13.3285 76.6858 13.3285H76.8833C77.5017 13.3049 78.1729 13.2931 79.0414 13.2931H81.8576L81.8445 12.9516C81.8314 12.3826 81.8314 11.8134 81.8445 11.2443C81.8445 10.6674 81.8576 10.0787 81.8445 9.48994C81.8314 8.60687 81.3181 7.70032 80.4496 7.00555C79.502 6.25207 78.1598 5.81634 76.8043 5.81634ZM76.6332 10.9853C75.8568 10.9853 75.1987 10.6557 74.9092 10.114C74.7514 9.8432 74.7514 9.52531 74.8961 9.23091C75.0936 8.84242 75.5278 8.51265 76.0015 8.39495H76.0279C76.2252 8.32435 76.449 8.28899 76.6858 8.28899C77.3044 8.28899 77.8965 8.51265 78.2518 8.88953C78.5151 9.16031 78.6072 9.48994 78.5413 9.8432C78.3045 10.632 77.4097 10.9853 76.6332 10.9853ZM42.7733 5.81634C41.5888 5.81634 40.4439 6.14597 39.5623 6.73477C38.5095 7.41766 37.891 8.48917 37.9436 9.51357C37.891 10.4909 38.4437 11.5153 39.4043 12.2452C40.3781 12.9752 41.6415 13.3756 42.997 13.3756C43.3259 13.3756 43.6549 13.352 43.984 13.3049C44.8787 13.3049 45.7999 13.3168 46.6817 13.3168H47.8398V12.9752C47.8265 12.4454 47.8398 11.9155 47.8398 11.4093C47.8398 10.7851 47.8398 10.1376 47.8265 9.50182C47.8265 8.68935 47.3792 7.82977 46.6027 7.15862C45.6157 6.29904 44.2208 5.81634 42.7733 5.81634ZM42.5891 10.9853C41.8126 10.9853 41.1546 10.6557 40.8651 10.114C40.7072 9.8432 40.7072 9.52531 40.8651 9.23091C41.0625 8.84242 41.4835 8.52453 41.9574 8.40669H41.9836C42.1943 8.33609 42.418 8.30073 42.668 8.30073C43.576 8.30073 44.5366 8.8188 44.563 9.69013C44.4446 10.3024 43.7865 10.9853 42.5891 10.9853ZM57.8806 5.82808H54.5907V8.30073H57.8806V5.82808ZM90.5562 6.34615H87.6742V6.67592C87.6742 7.28821 87.6742 8.79531 87.6611 9.63127C87.6742 10.1022 87.3058 10.5497 86.8057 10.691C86.7004 10.7263 86.5951 10.7381 86.4898 10.7381C85.9241 10.7381 85.3844 10.3142 85.345 9.81971C85.2791 8.91302 85.2924 7.3117 85.3055 6.66418V6.32266H82.3313L82.3182 6.6523C82.3051 7.12326 82.226 9.4782 82.384 10.067C82.713 11.4799 83.9633 12.6574 85.4897 12.9987C85.7661 13.0695 86.0687 13.1047 86.424 13.1047C86.8057 13.1047 87.1874 13.0577 87.5689 13.0224L87.7005 13.0106C87.7005 13.3756 87.6611 13.9054 87.2005 14.1998C86.6215 14.6001 85.8714 14.8002 84.9633 14.8002C84.7396 14.8002 84.5159 14.7885 84.279 14.765L83.858 14.7179L83.8711 15.1064C83.8842 15.8129 83.8842 16.3898 83.8711 16.9196L83.858 17.2258L84.2001 17.2611C84.529 17.2965 84.8712 17.32 85.2002 17.32C86.4373 17.32 87.6085 17.061 88.5692 16.59C89.5955 16.1073 90.3325 15.13 90.5562 13.976V6.34615ZM57.8806 8.66573H54.5907V13.2814H57.8806V8.66573Z" fill="#32448C"/>
<path d="M25.1412 8.23293C23.8252 2.46356 16.0609 -1.51633 9.45479 0.873977C2.01954 3.57029 -0.809785 8.73926 0.519338 14.0496C1.86159 19.3952 8.25722 22.8334 15.245 21.5617C22.246 20.2783 26.4572 14.0024 25.1412 8.23293ZM14.9292 20.1488C13.2973 20.4431 11.7051 20.4431 10.2311 20.1959C10.1918 18.4885 10.2443 16.7812 10.2049 15.074C10.3102 15.1093 11.3892 15.4155 11.8893 15.4861C14.8502 15.8628 18.1796 15.0505 19.93 12.7897C20.2984 12.2246 20.6141 11.6358 20.7852 11C21.338 8.82174 19.693 6.74945 18.7718 5.98409C15.3372 3.21704 9.1784 3.47608 6.48063 6.97312C6.02004 7.58541 5.77005 8.30367 5.57257 9.01017C5.57257 9.01017 5.55944 17.5112 5.6385 18.3708C5.6385 18.3708 5.62522 18.3708 5.62522 18.3826C3.90129 17.2051 2.66434 15.5685 2.17735 13.6493C1.01931 9.05715 3.46709 4.57107 9.91538 2.23975C15.6398 0.167467 22.3645 3.60566 23.5094 8.60981C24.6543 13.614 20.9827 19.042 14.9292 20.1488ZM10.2707 9.72829C10.2969 9.63421 10.3628 9.44577 10.4022 9.36329C11.3234 7.59716 14.1923 7.34986 15.7846 8.51559C16.0741 8.76288 16.3373 9.04541 16.5215 9.36329C16.561 9.45751 16.6399 9.63421 16.6794 9.72829C16.8243 10.3994 16.6136 11.1177 16.0741 11.6005C14.6924 12.8486 12.1919 12.778 10.8759 11.4828C10.6128 11.2355 10.4417 10.9176 10.3102 10.5996C10.2443 10.3171 10.218 10.0227 10.2707 9.72829Z" fill="#32448C"/>
<path d="M12.3358 21.9853C6.53236 21.9853 1.54475 18.8415 0.347337 14.0847C-0.336988 11.353 0.0709516 8.6919 1.54475 6.39594C3.09761 3.98215 5.80851 2.01583 9.38809 0.72065C12.5332 -0.421455 16.1653 -0.197786 19.3499 1.33294C22.4556 2.8283 24.6928 5.39503 25.3376 8.20919C25.9825 11.0586 25.3113 14.1435 23.4821 16.6868C21.5871 19.3244 18.6788 21.1259 15.2967 21.738C14.2835 21.903 13.2964 21.9853 12.3358 21.9853ZM13.5597 0.332029C12.176 0.332454 10.8049 0.568228 9.51964 1.0268C2.58452 3.53467 -0.718677 8.39763 0.702624 14.0141C1.86067 18.6179 6.70344 21.6557 12.3358 21.6557C13.2833 21.6557 14.244 21.5732 15.2178 21.3967C18.4946 20.7961 21.3108 19.0535 23.153 16.4985C24.9296 14.0258 25.5877 11.0351 24.956 8.26805C24.3375 5.54811 22.1661 3.07546 19.1657 1.62721C17.376 0.76776 15.4547 0.332029 13.5597 0.332029ZM12.4147 20.5488C11.6646 20.5488 10.9145 20.49 10.1908 20.3605L10.046 20.3369V20.1957C10.0329 19.3361 10.0329 18.4648 10.0329 17.6169C10.0329 16.781 10.046 15.9215 10.0198 15.0737V14.8383L10.2697 14.9089C10.454 14.9677 11.454 15.2504 11.9279 15.3092C15.152 15.7214 18.2314 14.6852 19.7842 12.6835C20.0737 12.2361 20.4421 11.6238 20.6001 10.9526C21.1002 8.9863 19.7053 6.97287 18.6393 6.10154C16.9285 4.73577 14.4413 4.06462 11.9937 4.32366C9.71698 4.55907 7.80883 5.53636 6.63766 7.06709C6.1902 7.66763 5.95334 8.37401 5.76913 9.03341C5.76913 9.50437 5.75601 17.5346 5.83491 18.3588L5.84803 18.559L5.71648 18.5473L5.6507 18.6179L5.50587 18.5236C3.68991 17.2756 2.47921 15.6035 1.99222 13.6843C1.40007 11.3059 1.75536 8.99804 3.03183 7.00823C4.37423 4.91233 6.72969 3.20504 9.8354 2.07468C12.5727 1.08565 15.7178 1.27409 18.4813 2.6045C21.1791 3.89967 23.1268 6.12516 23.6796 8.57419C24.877 13.861 20.8896 19.2301 14.9677 20.3134C14.1124 20.4665 13.257 20.5488 12.4147 20.5488ZM10.4013 20.0544C11.8621 20.278 13.3755 20.2545 14.8888 19.9836C20.6132 18.9357 24.469 13.7432 23.311 8.64479C22.7715 6.30172 20.9027 4.15871 18.3103 2.91064C15.652 1.62721 12.6122 1.45065 9.98023 2.39257C3.97942 4.55907 1.13681 8.76263 2.36078 13.6137C2.79497 15.3445 3.86099 16.8635 5.44009 18.0409C5.37432 16.2394 5.38744 9.33955 5.38744 9.02166V8.9863C5.58493 8.29167 5.83491 7.54979 6.32175 6.89039C7.57197 5.27733 9.55917 4.25293 11.9542 4.00564C14.5204 3.73486 17.1128 4.42962 18.9026 5.86613C19.8764 6.66672 21.5477 8.77437 20.9687 11.0468C20.7843 11.7533 20.4028 12.4009 20.1001 12.8837C18.4551 15.0031 15.2309 16.0864 11.8753 15.6625C11.4804 15.6154 10.783 15.427 10.4013 15.321C10.4144 16.0981 10.4144 16.8752 10.4013 17.6406C10.3882 18.4451 10.3882 19.2498 10.4013 20.0544ZM13.5465 12.6599H13.4675C12.4016 12.6364 11.4015 12.2478 10.7303 11.6003C10.4804 11.3647 10.296 11.0705 10.1249 10.6701L10.1118 10.6465C10.0329 10.2815 10.0198 9.98721 10.0591 9.70455V9.68106L10.1908 9.29244C10.6119 8.49172 11.4278 7.93841 12.4805 7.72649C13.6781 7.49094 14.9677 7.73823 15.8626 8.39763C16.2179 8.70378 16.4679 8.9863 16.6523 9.29244L16.6654 9.30419C16.7049 9.39841 16.7838 9.5751 16.8233 9.66919L16.8365 9.69281C17.0075 10.4345 16.7574 11.1999 16.1784 11.718C15.5336 12.3185 14.573 12.6599 13.5465 12.6599ZM10.4935 10.5641C10.6382 10.9174 10.8092 11.1764 11.0067 11.3765C11.612 11.9653 12.5069 12.3185 13.4808 12.3303C14.4282 12.3538 15.3231 12.0359 15.9415 11.4826C16.4154 11.0468 16.6258 10.3992 16.4943 9.77515C16.4548 9.68106 16.3759 9.51611 16.3495 9.43377C16.1917 9.16299 15.9679 8.90382 15.652 8.64479C14.8625 8.06786 13.6912 7.83245 12.6122 8.05612C11.6778 8.24456 10.9541 8.72726 10.5855 9.43377L10.4671 9.77515C10.4013 9.98721 10.4277 10.2462 10.4935 10.5641Z" fill="#32448C"/>
</svg>
