<svg width="91" height="18" viewBox="0 0 91 18" fill="none" xmlns="http://www.w3.org/2000/svg">
<path d="M9.90602 4.91809L11.2564 4.93307V11.4511H18.808L18.7912 12.6294H9.92276L9.90602 4.91809ZM28.61 4.94792H30.2104L33.3944 8.42324L36.5618 4.94792H38.1788L34.0612 9.75067V12.6294H32.7276V9.75067L28.61 4.94792ZM38.2621 6.05169C38.2621 5.41038 39.0289 4.94792 39.779 4.93307C41.5628 4.93307 45.7136 4.90324 45.9971 4.97775C46.5471 5.11206 47.0139 5.52971 47.1307 6.03684C47.1973 6.27536 47.164 6.76765 47.164 6.76765H45.7803V6.2157C45.7803 6.11135 45.597 6.09651 45.4804 6.09651H39.8958C39.7291 6.08152 39.5791 6.2157 39.5957 6.36486V7.9161C39.5791 8.06526 39.7291 8.19957 39.8958 8.19957H45.7136C46.4972 8.24425 47.164 8.85573 47.164 9.55684V11.2572C47.1473 11.7941 46.7306 12.3012 46.1804 12.4952C45.8637 12.6145 41.6295 12.6145 39.8291 12.6145C39.2123 12.5995 38.6122 12.2714 38.3621 11.7494C38.2121 11.4362 38.2287 10.7501 38.2287 10.7501H39.5791C39.5791 10.7501 39.4957 11.2721 39.7457 11.4362H45.5303C45.6637 11.4362 45.8136 11.3317 45.797 11.2124V9.87C45.797 9.706 45.8304 9.52701 45.7136 9.3927C45.5944 9.36222 45.4709 9.34718 45.347 9.34802H39.8123C39.079 9.34802 38.2621 8.96021 38.2621 8.2294C38.2788 7.9161 38.2621 6.05169 38.2621 6.05169ZM57.7161 4.93307H59.3498L65.2678 11.0484V4.93307L66.6348 4.94792L66.6015 12.6294H65.051L59.0665 6.49917L59.0498 12.6294H57.7161V4.93307ZM9.27268 6.27536C9.25594 5.54455 8.48909 4.94792 7.70565 4.94792H0.370728V12.6145H1.68763L1.72097 9.84017L7.63896 9.85515C8.48909 9.85515 9.27268 9.27337 9.27268 8.51273V6.27536ZM7.92229 8.4829C7.92229 8.61721 7.78892 8.7067 7.63896 8.7067H1.90442C1.8044 8.67687 1.70438 8.60223 1.72097 8.4829V6.30519C1.72097 6.15603 1.90442 6.09651 2.05438 6.09651H7.65556C7.82226 6.09651 7.92229 6.2157 7.92229 6.35001V8.4829ZM28.46 6.32018C28.46 5.57439 27.8765 4.93307 27.3098 4.93307H21.0752C20.275 4.94792 19.5581 5.55954 19.5581 6.27536V12.6145H20.8917V9.92967H27.1098V12.0327L27.1431 12.6145H28.4433L28.46 11.1081C28.46 11.1081 28.4433 7.9161 28.46 6.32018ZM27.1098 8.76637H20.8917V6.36486C20.8584 6.2157 21.0085 6.08152 21.1752 6.09651H26.8263C26.993 6.08152 27.1098 6.23068 27.093 6.36486C27.1098 7.17031 27.1098 8.76637 27.1098 8.76637ZM56.866 10.9589C56.866 9.97448 56.8494 6.70799 56.8494 6.05169C56.8494 5.44021 56.0492 4.94792 55.3323 4.93307H49.5145C48.8309 4.93307 47.9474 5.67886 47.9474 6.20085V11.2572C47.9642 11.988 48.7143 12.5995 49.5145 12.6145H55.2656C55.9159 12.6145 56.5493 12.2267 56.766 11.6747C56.8827 11.4511 56.866 11.1976 56.866 10.9589ZM55.3656 11.4511H49.4811C49.3811 11.4511 49.2977 11.3317 49.3144 11.2274V6.24553C49.3478 6.15603 49.3144 6.03684 49.6644 6.03684H55.2157C55.3824 6.03684 55.5158 6.09651 55.5158 6.24553V11.2274C55.5323 11.3317 55.4824 11.4511 55.3656 11.4511Z" fill="#32448C"/>
<path d="M70.7526 0.741211L77.5207 3.50057L70.7526 6.27477V0.741211Z" fill="#32448C"/>
<path d="M77.5197 3.50153L84.2712 6.26088L77.5197 9.02024V3.50153Z" fill="#32448C"/>
<path d="M70.7526 6.27515L77.5207 9.01965L70.7526 11.764V6.27515Z" fill="#32448C"/>
<path d="M90.8899 8.98978L84.2719 11.779V6.26025L90.8899 8.98978Z" fill="#32448C"/>
<path d="M84.2712 11.7791L77.5197 14.5385V9.01978L84.2712 11.7791Z" fill="#32448C"/>
<path d="M77.5207 14.5379L70.7526 17.2823V11.7636L77.5207 14.5379Z" fill="#32448C"/>
</svg>
