<svg width="92" height="36" viewBox="0 0 92 36" fill="none" xmlns="http://www.w3.org/2000/svg">
<path d="M72.5077 35.5872C64.8912 35.5872 58.6949 30.0431 58.6949 23.2282C58.6949 16.4135 64.8912 10.8694 72.5077 10.8694C80.1242 10.8694 86.3206 16.4135 86.3206 23.2282C86.3206 30.0431 80.1242 35.5872 72.5077 35.5872ZM72.5077 12.3896C65.8295 12.3896 60.3855 17.253 60.3855 23.2358C60.3855 29.2186 65.821 34.0821 72.5077 34.0821C79.1943 34.0821 84.6298 29.2186 84.6298 23.2358C84.6298 17.253 79.1859 12.3896 72.5077 12.3896Z" fill="#32448C"/>
<path d="M68.9839 8.13891C68.9839 8.16915 68.9415 8.17671 68.9331 8.14647C68.5527 6.66393 65.1122 0.469354 64.7571 0.590435C64.3514 0.719075 65.0953 7.07996 65.6364 8.9557C65.6448 8.98594 65.6024 8.9935 65.5855 8.97082C63.1848 5.54451 60.4205 5.61267 59.8879 5.6807C59.8541 5.68826 59.8541 5.72606 59.8795 5.73362C63.1932 7.26151 64.7909 11.6257 64.9431 12.0568C64.9516 12.072 64.9685 12.0795 64.9938 12.072C66.8366 11.0736 68.9501 10.4382 71.2155 10.2567C71.2324 10.2567 71.2493 10.2416 71.2408 10.2264C71.1395 9.84066 70.1842 5.83202 72.0186 3.04864C72.0356 3.02596 72.0101 2.99559 71.9848 3.00315C71.5113 3.14691 69.0853 4.44033 68.9839 8.13891ZM71.8387 15.1064C72.4161 13.7352 74.6714 13.2243 76.8719 13.9661C79.0724 14.7079 80.3901 16.4235 79.8127 17.7946C79.2352 19.1658 76.9799 19.6767 74.7795 18.9348C72.579 18.193 71.2612 16.4776 71.8387 15.1064Z" fill="#32448C"/>
<path d="M6.12375 26.5034V20.2557H8.00896C8.67669 20.2557 9.29388 20.3995 9.63197 20.6264C10.1983 21.0122 10.3505 21.6778 10.3505 22.0635C10.3505 22.6459 10.1307 23.0013 9.91092 23.2585C9.7249 23.4703 9.25148 23.6669 8.93029 23.7805C9.36147 24.3401 10.6633 26.5865 10.6633 26.5865H9.12476C9.12476 26.5865 7.67917 23.9696 7.53554 23.9696H7.30728V26.5034H6.12375ZM7.90743 21.3449H7.30728V22.7744H7.90743C8.28791 22.7744 8.49912 22.7139 8.71048 22.5854C8.92184 22.4568 9.03183 22.2828 9.03183 22.0635C9.03183 21.8441 8.93029 21.6702 8.71893 21.5416C8.50757 21.413 8.29636 21.3449 7.90743 21.3449ZM0.671326 26.5034V20.2557H2.55639C3.22427 20.2557 3.84131 20.3995 4.17955 20.6264C4.74589 21.0122 4.89797 21.6778 4.89797 22.0635C4.89797 22.9938 4.22179 23.6443 3.57925 23.7956C2.86928 23.962 1.85486 23.9696 1.85486 23.9696V26.5034H0.671326ZM2.46345 21.3449H1.86331V22.7744H2.46345C2.84379 22.7744 3.05515 22.7139 3.26651 22.5854C3.47787 22.4568 3.5877 22.2828 3.5877 22.0635C3.5877 21.8441 3.48632 21.6702 3.27496 21.5416C3.0636 21.413 2.85223 21.3449 2.46345 21.3449ZM62.4404 26.5865V20.339H64.4101C65.0778 20.339 65.695 20.4827 66.0331 20.7096C66.5994 21.0953 66.7517 21.761 66.7517 22.1467C66.7517 22.7291 66.5319 23.0846 66.312 23.3418C66.1262 23.5536 65.6528 23.7502 65.3314 23.8636C64.9088 24.0074 63.8013 23.9771 63.8013 23.9771L63.7929 26.5941H62.4404V26.5865ZM64.317 21.4282H63.8013V22.8577H64.317C64.6975 22.8577 64.9089 22.7971 65.1202 22.6686C65.3314 22.54 65.4414 22.3661 65.4414 22.1467C65.4414 21.9274 65.3399 21.7534 65.1287 21.6248C64.9173 21.4887 64.7059 21.4282 64.317 21.4282ZM25.6849 21.118L24.7636 21.9274C24.2057 21.466 23.3349 21.0651 22.5994 21.0651C22.2698 21.0651 21.9571 21.118 21.6697 21.224C21.3823 21.3298 21.1202 21.4736 20.9004 21.6702C20.6806 21.8592 20.5115 22.1013 20.3847 22.3963C20.2579 22.6913 20.1903 23.0164 20.1903 23.3644C20.1903 24.0603 20.4101 24.6199 20.8496 25.0435C21.2892 25.4747 21.8724 25.6864 22.591 25.6864C23.1489 25.6864 23.6308 25.5276 24.045 25.2251C24.2817 25.0511 24.5691 24.8999 24.6959 24.4006L22.6079 24.393L22.591 23.3191H26.2006C26.2006 24.4839 25.9639 25.0511 25.2962 25.7318C24.6367 26.4125 23.7323 26.753 22.5825 26.753C22.0331 26.753 21.5259 26.6697 21.0525 26.4958C20.5791 26.3218 20.1734 26.0949 19.8353 25.7923C19.493 25.4882 19.2227 25.1255 19.0405 24.7259C18.8462 24.3099 18.7531 23.8561 18.7531 23.372C18.7531 22.7215 18.9223 22.1467 19.2519 21.6399C19.5901 21.1256 20.0465 20.7247 20.6299 20.4449C21.2131 20.165 21.8555 20.0213 22.5656 20.0213C23.1489 20.0213 23.6645 20.1046 24.1126 20.2633C24.5607 20.4222 25.3722 20.8836 25.6849 21.118ZM34.2315 20.2557L35.3219 26.5034H33.9863L33.3522 22.54L31.8052 26.5034H30.5795L28.9987 22.487L28.3817 26.5034H27.0629L28.1703 20.2557H29.3961L31.2051 24.8923L33.0057 20.2557H34.2315ZM90.8608 20.4902L91.1905 22.3812H90.7847L90.5903 21.1785L90.1254 22.3812H89.7533L89.2801 21.1634L89.0941 22.3812H88.6967L89.0265 20.4902H89.3983L89.9393 21.8972L90.4804 20.4902H90.8608ZM39.1767 20.1802H40.3854L43.2935 26.5865H41.7803L41.1886 25.2855H38.399L37.8071 26.5865H36.3532L39.1767 20.1802ZM40.7743 24.0905L40.2925 23.0695C40.1402 22.7215 39.9628 22.2677 39.7684 21.708H39.7346C39.5063 22.3812 39.3372 22.835 39.2443 23.0695L38.7708 24.083H40.7743V24.0905ZM74.4781 20.1802H75.6954L78.6033 26.5865H77.0902L76.4985 25.2855H73.7088L73.1171 26.5865H71.6631L74.4781 20.1802ZM76.0757 24.0905L75.5939 23.0695C75.4418 22.7215 75.2642 22.2677 75.0698 21.708H75.036C74.8077 22.3812 74.6387 22.835 74.5457 23.0695L74.0723 24.083H76.0757V24.0905ZM14.425 20.1802H15.6338L18.5418 26.5865H17.0287L16.4369 25.2855H13.6472L13.0556 26.5865H11.6017L14.425 20.1802ZM16.0143 24.0905L15.5325 23.0695C15.3802 22.7215 15.2028 22.2677 15.0084 21.708H14.9746C14.7463 22.3812 14.5772 22.835 14.4842 23.0695L14.0108 24.083H16.0143V24.0905ZM43.1244 21.3978V20.1953H47.3003V21.3978H45.9056V26.5714H44.5107V21.3978H43.1244ZM87.3104 20.8382V20.4751H88.57V20.8382H88.1472V22.4039H87.7246V20.8382H87.3104ZM48.2556 26.6319V20.2633H49.6419V26.6319H48.2556ZM67.5378 26.6319V20.339H68.9326V25.4671H70.8685V26.6319H67.5378ZM79.7191 26.579V23.8258L77.5889 20.3012H78.8738L80.3363 22.7593H80.3617L81.8242 20.3012H83.1091L80.9449 23.8258V26.579H79.7191ZM54.6464 25.7091C53.9363 25.7318 53.353 25.4898 52.9134 25.0586C52.4653 24.6275 52.2457 24.0678 52.2457 23.3796C52.2457 22.6988 52.4653 22.1392 52.9134 21.708C53.3615 21.2769 53.9363 21.0576 54.6464 21.0576C56.2187 21.0576 56.8526 21.9879 56.8526 21.9879L57.715 21.3071C57.4191 20.9516 57.0471 20.6642 56.6076 20.4373C56.0327 20.1424 55.3734 19.9986 54.6548 19.9986C53.9363 19.9986 53.277 20.1424 52.6936 20.4373C52.1103 20.7322 51.6538 21.1331 51.3242 21.6474C50.9945 22.1619 50.8254 22.7442 50.8254 23.3796L50.8085 23.3871C50.8085 24.0225 50.9776 24.6048 51.3073 25.1268C51.6369 25.6411 52.0934 26.0496 52.6767 26.3445C53.2601 26.6394 53.9109 26.7832 54.6379 26.7832C55.3565 26.7832 56.0073 26.6319 56.5906 26.3369C57.0304 26.1155 57.4134 25.814 57.715 25.452L56.8442 24.6805C56.8442 24.6805 56.0158 25.6713 54.6464 25.7091Z" fill="#32448C"/>
</svg>
