<svg width="92" height="22" viewBox="0 0 92 22" fill="none" xmlns="http://www.w3.org/2000/svg">
    <path fill-rule="evenodd" clip-rule="evenodd" d="M31.4449 9.69792C31.5083 11.1655 31.1186 12.5114 29.9678 13.6141C29.0525 14.4897 27.9107 14.9681 26.5605 15.0086C25.9171 15.0248 25.2465 15.0572 24.6213 14.9438C22.383 14.5626 20.8333 13.0951 20.4619 11.0439C20.2534 9.90053 20.2625 8.75735 20.6431 7.63036C21.4134 5.33576 23.7241 4.03855 26.5333 4.30609C29.4512 4.58173 31.3271 6.38985 31.454 9.02489C31.454 9.25193 31.4449 9.47898 31.4449 9.69792ZM22.6549 9.50327C22.7273 10.079 22.7454 10.4843 22.827 10.8735C23.1079 12.2032 24.0957 13.1033 25.3916 13.2249C26.9683 13.379 28.1735 12.8437 28.7173 11.6682C29.3243 10.3627 29.3153 9.01679 28.7263 7.70339C28.2369 6.6169 27.1949 6.08168 25.8175 6.11421C24.4853 6.13851 23.4795 6.73042 23.0627 7.83311C22.8361 8.41678 22.7635 9.04918 22.6549 9.50327Z" fill="#32448C"/>
    <path fill-rule="evenodd" clip-rule="evenodd" d="M9.48713 7.49325C8.81654 7.49325 8.18215 7.50135 7.55681 7.48515C7.44819 7.48515 7.2759 7.37163 7.2578 7.2824C7.04945 6.44725 6.39696 6.07429 5.53612 6.0176C4.98335 5.9852 4.40328 6.0419 3.86876 6.16352C3.36125 6.27704 3.08939 6.6581 3.06223 7.13649C3.03508 7.59057 3.32504 7.88241 3.75093 8.03643C4.33086 8.24727 4.94699 8.40129 5.54518 8.56354C6.30629 8.76616 7.10376 8.91207 7.84693 9.15532C10.1576 9.92567 10.647 12.6094 8.82559 14.1175C7.38468 15.3175 3.24342 15.3661 1.80266 14.0688C1.05045 13.3959 0.696969 12.6094 0.633606 11.6284C1.34041 11.6284 2.02006 11.6201 2.69971 11.6365C2.79038 11.6365 2.93536 11.75 2.96251 11.8391C3.21627 12.8039 3.98644 13.2093 5.00146 13.258C5.55423 13.2904 6.13415 13.2418 6.67787 13.1364C7.23064 13.031 7.55681 12.6742 7.62938 12.1553C7.70194 11.6608 7.37562 11.3283 6.94068 11.1662C6.06174 10.8499 5.15549 10.6067 4.25829 10.3472C3.78714 10.2094 3.28868 10.1202 2.81753 9.98237C1.61227 9.6337 0.941673 8.87968 0.832899 7.75269C0.696969 6.48788 1.0595 5.39329 2.42785 4.79329C2.97156 4.55005 3.58785 4.42033 4.18588 4.3311C5.20075 4.19328 6.21577 4.23378 7.19443 4.54195C8.6533 5.00413 9.54144 6.12302 9.48713 7.49325Z" fill="#32448C"/>
    <path fill-rule="evenodd" clip-rule="evenodd" d="M11.0727 4.55002C12.9032 4.55002 14.7066 4.50129 16.5099 4.56622C18.4039 4.63101 19.464 5.53109 19.6725 7.20949C19.7449 7.79316 19.6996 8.40937 19.5637 8.98508C19.2285 10.3553 18.1138 11.085 16.374 11.1336C15.3772 11.1581 14.3803 11.1419 13.3383 11.1419V14.7013H11.0727V4.55002ZM13.3473 9.22022C14.3622 9.22022 15.368 9.28501 16.3468 9.19592C17.0627 9.131 17.3707 8.64451 17.407 7.88239C17.4433 7.14456 17.1079 6.51216 16.4554 6.43103C15.4315 6.30131 14.3893 6.31751 13.3473 6.27702V9.22022Z" fill="#32448C"/>
    <path fill-rule="evenodd" clip-rule="evenodd" d="M40.6048 6.35865H37.3245V14.718H34.9774V6.37485H31.6155V4.57483H40.6048V6.35865Z" fill="#32448C"/>
    <path fill-rule="evenodd" clip-rule="evenodd" d="M83.3774 14.547H82.4259V4.78508C83.3683 4.60663 83.4681 4.63917 83.9665 5.32826C85.7698 7.78498 87.5731 10.2417 89.3673 12.6903C89.4671 12.8281 89.5758 12.9579 89.757 13.2011V4.74445H90.7266V14.4822C89.9111 14.7093 89.6573 14.6363 89.2314 14.0444C87.412 11.5648 85.5906 9.0865 83.7671 6.6094C83.6674 6.47968 83.5678 6.34983 83.3683 6.26074C83.3774 9.00929 83.3774 11.758 83.3774 14.547Z" fill="#32448C"/>
    <path fill-rule="evenodd" clip-rule="evenodd" d="M70.9715 9.61689C71.0894 8.94399 71.1256 8.24666 71.3339 7.59806C72.0228 5.44937 73.8713 4.36288 76.5354 4.45211C78.6922 4.52513 80.4502 5.90346 80.9578 7.93849C81.293 9.28442 81.2658 10.6385 80.7674 11.952C80.0877 13.7358 78.511 14.7736 76.4178 14.8385C73.2733 14.9357 71.1708 13.1682 71.0713 10.3385C71.0622 10.1034 71.0713 9.86013 71.0713 9.62499C71.0349 9.62499 71.0077 9.62499 70.9715 9.61689ZM80.2781 9.70611C80.2327 9.69801 80.1784 9.68182 80.1331 9.67372C80.1241 8.78174 80.0062 7.91419 79.544 7.11157C78.8281 5.87916 77.6954 5.23853 76.1276 5.23043C74.551 5.22233 73.3728 5.83043 72.6932 7.07904C71.7871 8.74934 71.7871 10.4925 72.6298 12.179C73.2914 13.4845 74.5148 14.1169 76.1095 14.1088C77.7045 14.1007 78.9369 13.46 79.5621 12.1466C79.9246 11.3763 80.0515 10.5251 80.2781 9.70611Z" fill="#32448C"/>
    <path fill-rule="evenodd" clip-rule="evenodd" d="M41.1405 9.62545C41.2946 8.87952 41.3581 8.1174 41.6118 7.40387C42.2734 5.54715 43.986 4.46066 46.1247 4.45256C48.5622 4.44446 50.2388 5.43363 50.9637 7.37147C51.5617 8.99304 51.5707 10.6471 50.8368 12.2281C50.0938 13.8417 48.7345 14.7578 46.7317 14.839C43.4332 14.9687 41.2764 13.112 41.2583 10.1362V9.64164C41.2221 9.64164 41.1769 9.63354 41.1405 9.62545ZM42.1555 9.60115C42.2915 10.2823 42.3458 10.9228 42.5452 11.539C43.0616 13.1525 44.4481 14.093 46.2425 14.1173C48.0548 14.1335 49.4865 13.2011 50.0393 11.5957C50.4833 10.3066 50.4833 9.00114 50.0212 7.72014C49.4594 6.14716 48.1182 5.25532 46.3511 5.23898C44.5569 5.22279 43.2066 6.05794 42.6176 7.63091C42.382 8.27141 42.3005 8.96065 42.1555 9.60115Z" fill="#32448C"/>
    <path fill-rule="evenodd" clip-rule="evenodd" d="M53.5919 10.3153V13.8828C53.5919 14.653 53.5919 14.653 52.6858 14.5314V4.76137C52.7944 4.75314 52.9213 4.72884 53.0482 4.72884C54.3441 4.72884 55.649 4.69644 56.9449 4.74504C57.4977 4.76947 58.0504 4.93159 58.5851 5.07751C58.8025 5.13433 59.0019 5.27215 59.1741 5.40187C60.7781 6.62618 60.2615 9.39904 58.2678 9.98285C57.4341 10.2261 56.5007 10.2423 55.6127 10.3153C54.9784 10.3558 54.3259 10.3153 53.5919 10.3153ZM53.6372 9.46397C53.764 9.48016 53.8276 9.48826 53.8909 9.48826C54.7246 9.48826 55.5583 9.50446 56.3921 9.48016C56.818 9.46397 57.262 9.41524 57.6698 9.30995C58.6937 9.05037 59.1196 8.41797 59.0653 7.30718C59.0291 6.39914 58.5216 5.74244 57.5339 5.63702C56.2562 5.4992 54.9603 5.5154 53.6372 5.46667V9.46397Z" fill="#32448C"/>
    <path fill-rule="evenodd" clip-rule="evenodd" d="M63.5223 5.50691H60.1059V4.75275H67.9354V5.50691H64.5462V14.531H63.5223V5.50691Z" fill="#32448C"/>
    <path fill-rule="evenodd" clip-rule="evenodd" d="M11.3268 0.398682C12.3054 0.98249 13.3747 1.20953 14.5437 1.177C15.3411 1.1608 16.1386 1.1851 16.9361 1.25813C18.0959 1.36355 19.0474 1.86623 19.8359 2.62026C19.9627 2.73378 20.0806 2.8554 20.3162 3.09054C20.3977 2.96082 20.4339 2.8392 20.5246 2.74998C21.5667 1.66349 22.9078 1.1932 24.4937 1.1689C25.4271 1.15271 26.3605 1.1608 27.2847 1.06348C27.8012 1.01489 28.2906 0.787842 28.8161 0.633825C28.1728 1.49327 27.2485 1.85814 26.1339 1.89863C25.5539 1.91483 24.9648 1.89863 24.3849 1.89863C22.4366 1.89863 20.9323 2.8959 20.3705 4.5581C20.3343 4.65542 20.307 4.74451 20.2527 4.93106C20.1711 4.69592 20.1168 4.55 20.0625 4.39598C19.5006 2.8797 17.9964 1.90673 16.2202 1.89053C15.3592 1.88243 14.4803 1.89863 13.6285 1.79321C12.6135 1.68792 11.8795 1.14461 11.3268 0.398682Z" fill="#32448C"/>
    <path fill-rule="evenodd" clip-rule="evenodd" d="M68.7161 4.73633H69.6314V14.5389H68.7161V4.73633Z" fill="#32448C"/>
    <path fill-rule="evenodd" clip-rule="evenodd" d="M51.8517 18.8203C52.4409 18.4879 52.7218 18.496 53.2746 18.8933C53.4105 18.8122 53.5283 18.7149 53.6824 18.6582C54.217 18.4393 54.7334 18.6663 54.7879 19.1852C54.8422 19.6555 54.8241 20.1339 54.815 20.6122C54.815 20.6932 54.6882 20.7825 54.6248 20.8636C54.5613 20.7744 54.4435 20.6932 54.4435 20.6041C54.4163 20.1986 54.4254 19.8014 54.4254 19.396C54.4254 19.1122 54.3166 18.8771 53.9452 18.8852C53.6098 18.8933 53.3743 19.0555 53.347 19.3798C53.3198 19.769 53.3379 20.1582 53.3108 20.5392C53.3017 20.6527 53.1748 20.7582 53.1024 20.8636C53.0389 20.7582 52.9301 20.6608 52.9301 20.5473C52.903 20.1744 52.9211 19.8014 52.9211 19.4284C52.9211 19.1528 52.8668 18.8933 52.4861 18.8852C52.1236 18.8771 51.8791 19.0555 51.8517 19.3879C51.8155 19.7771 51.8246 20.1582 51.7884 20.5473C51.7793 20.6527 51.6796 20.7582 51.6162 20.8636C51.5437 20.7582 51.4168 20.6446 51.4168 20.5392C51.3987 20.0041 51.3987 19.4689 51.4168 18.9338C51.4168 18.8365 51.5075 18.7392 51.5527 18.642C51.6253 18.6906 51.725 18.7474 51.8517 18.8203ZM75.7117 17.815C76.3913 17.815 77.0257 17.7826 77.6419 17.8231C78.086 17.8554 78.3579 18.2446 78.3579 18.6663C78.3579 19.1285 78.0497 19.477 77.5513 19.55C77.3066 19.5824 77.0529 19.5824 76.8082 19.5824C76.1468 19.5905 76.1468 19.5824 76.1468 20.1986C76.1468 20.3447 76.1739 20.4987 76.1377 20.6446C76.1195 20.7339 76.0018 20.7987 75.9202 20.8717C75.8476 20.8068 75.7207 20.742 75.7117 20.677C75.7026 19.7285 75.7117 18.7879 75.7117 17.815ZM76.183 18.123V19.2338C76.6089 19.2338 76.9986 19.2582 77.3883 19.2257C77.7597 19.1933 77.9229 18.9581 77.9047 18.6339C77.8866 18.3176 77.6873 18.1393 77.3428 18.1312C76.9624 18.1149 76.5817 18.123 76.183 18.123ZM27.0131 18.7798C27.1672 18.723 27.285 18.6744 27.4028 18.6339C27.439 18.723 27.5116 18.8122 27.5116 18.9014C27.5116 19.5743 27.5478 20.2474 27.4844 20.9122C27.4209 21.6743 26.4513 22.0717 25.7264 21.65C25.5633 21.5527 25.4727 21.3663 25.3548 21.2284C25.3912 21.1878 25.4183 21.1554 25.4546 21.1149C25.5724 21.1554 25.7264 21.1716 25.7898 21.2527C26.0616 21.6014 26.4513 21.5933 26.7594 21.423C26.9679 21.3013 27.0495 20.9933 27.131 20.742C26.2611 20.969 25.8352 20.896 25.5179 20.4581C25.2008 20.0041 25.2643 19.2176 25.6448 18.8608C25.9983 18.5285 26.4877 18.5123 27.0131 18.7798ZM25.7174 19.7285C25.7174 20.3528 26.1523 20.7258 26.6689 20.5392C27.0495 20.4014 27.2488 19.8906 27.1038 19.4122C26.995 19.0636 26.7594 18.8284 26.3244 18.869C25.9348 18.9176 25.7174 19.2501 25.7174 19.7285ZM1.40437 19.5662C1.40437 19.996 1.41342 20.3203 1.39532 20.6446C1.39532 20.7177 1.28655 20.7906 1.23208 20.8636C1.15967 20.7906 1.01469 20.7177 1.01469 20.6446C0.996582 19.7122 0.996582 18.7798 0.996582 17.815C1.66718 17.815 2.30142 17.7745 2.9177 17.8312C3.3798 17.8716 3.63356 18.2527 3.6064 18.723C3.5883 19.1933 3.28008 19.5177 2.75446 19.5581C2.33762 19.5905 1.91173 19.5662 1.40437 19.5662ZM1.43153 19.2338C1.87552 19.2338 2.27426 19.2582 2.66394 19.2257C3.01727 19.2014 3.18956 18.9662 3.18051 18.6663C3.17146 18.3662 3.00822 18.1474 2.64584 18.1312C2.25616 18.1149 1.85742 18.1312 1.43153 18.1312V19.2338ZM31.3357 17.7988C31.9792 17.7988 32.5229 17.7826 33.0665 17.8069C33.6102 17.8312 33.9184 18.1312 33.9456 18.6014C33.9727 19.1285 33.6827 19.4934 33.139 19.5581C32.8129 19.5986 32.4775 19.5986 32.1423 19.5824C31.8432 19.5743 31.7073 19.6636 31.7345 19.9392C31.7526 20.1582 31.7526 20.3852 31.7254 20.6041C31.7164 20.6932 31.6076 20.7744 31.5531 20.8636C31.4807 20.7825 31.3448 20.7096 31.3448 20.6284C31.3267 19.7041 31.3357 18.7717 31.3357 17.7988ZM31.7616 19.242C32.1785 19.242 32.5591 19.2582 32.9397 19.2338C33.3112 19.2095 33.5197 18.9988 33.5106 18.6744C33.5016 18.3581 33.3202 18.1393 32.9305 18.1312C32.5501 18.123 32.1785 18.1312 31.7616 18.1312V19.242ZM17.9967 18.7555C17.9967 18.5042 17.9784 18.2771 18.0057 18.0582C18.0148 17.969 18.1236 17.8797 18.1779 17.7907C18.2503 17.8716 18.3772 17.9528 18.3772 18.0339C18.3954 18.9014 18.3954 19.7609 18.3772 20.6284C18.3772 20.7096 18.2776 20.7825 18.2231 20.8636C17.897 20.5716 17.6251 20.9527 17.317 20.9122C17.1902 20.896 17.0452 20.896 16.9274 20.8555C16.293 20.6446 16.0302 19.8501 16.3292 19.1528C16.5467 18.6501 17.2716 18.3988 17.8244 18.7392C17.8425 18.7636 17.8789 18.7555 17.9967 18.7555ZM18.1507 19.8501C18.0329 19.3149 17.8517 18.95 17.4982 18.9176C17.2807 18.8933 16.9726 18.9907 16.8095 19.1285C16.5105 19.3879 16.5196 20.1258 16.8186 20.3771C16.9907 20.523 17.3985 20.6527 17.5344 20.5716C17.7972 20.4176 17.9513 20.1015 18.1507 19.8501ZM39.3373 20.8879C39.2086 20.8343 39.0787 20.7829 38.9476 20.7339C38.5762 20.7906 38.2137 20.8879 37.8512 20.9041C37.4707 20.9122 37.1715 20.6851 37.2079 20.3609C37.235 20.1258 37.4524 19.8419 37.679 19.7203C37.9509 19.5743 38.3225 19.5986 38.6396 19.5257C38.7484 19.5015 38.9386 19.4041 38.9295 19.3554C38.9114 19.2257 38.8481 19.0393 38.7393 18.9824C38.3949 18.8041 38.0506 18.8122 37.7425 19.096C37.6428 19.1852 37.5159 19.2501 37.2893 19.4041C37.4434 18.7311 37.824 18.5528 38.6124 18.6176C39.129 18.6582 39.3283 18.8527 39.3283 19.3473C39.3464 19.8257 39.3373 20.3122 39.3373 20.8879ZM38.8843 19.769C38.5489 19.8257 38.2318 19.8582 37.9418 19.9554C37.8059 20.0041 37.6247 20.1986 37.6428 20.296C37.67 20.4338 37.8421 20.6041 37.9961 20.6446C38.4765 20.7663 39.138 20.3447 38.8843 19.769ZM67.6194 19.169C67.9003 18.6176 68.8609 18.3662 69.3865 18.7311C69.5406 18.8365 69.6403 19.0798 69.6584 19.2663C69.6947 19.7852 69.6674 20.296 69.6674 20.8717C69.5517 20.8277 69.4369 20.7818 69.3232 20.7339C68.8973 20.7987 68.5257 20.8879 68.1631 20.896C67.8098 20.9041 67.5742 20.6851 67.5289 20.369C67.4835 20.0527 67.6558 19.8014 67.982 19.7041C68.29 19.6069 68.6345 19.5905 68.9516 19.5177C69.0694 19.4853 69.2779 19.3636 69.2687 19.323C69.2234 19.1852 69.142 18.9988 69.006 18.9419C68.6707 18.7879 68.3354 18.8122 68.0636 19.096C67.9729 19.1852 67.8279 19.2338 67.7101 19.2987C67.6739 19.2663 67.6467 19.2176 67.6194 19.169ZM69.2234 19.7609C68.8792 19.8257 68.5619 19.8501 68.2719 19.9473C68.136 19.9879 67.9548 20.1905 67.9729 20.2879C68.0001 20.4257 68.1722 20.596 68.3264 20.6365C68.8792 20.7825 69.3051 20.3771 69.2234 19.7609ZM64.4568 18.8365C64.6382 18.7555 64.756 18.6906 64.8737 18.6501C65.5352 18.4312 66.0518 18.723 66.088 19.3473C66.1152 19.7528 66.1152 20.1501 66.097 20.5554C66.088 20.6608 65.9792 20.7582 65.9159 20.8636C65.8433 20.7501 65.7256 20.6446 65.7166 20.5311C65.6893 20.1743 65.7074 19.8176 65.7074 19.4608C65.7074 19.1528 65.5897 18.9176 65.2181 18.8933C64.8103 18.869 64.5294 19.0636 64.4841 19.4284C64.4387 19.8014 64.4749 20.1744 64.4478 20.5473C64.4387 20.6608 64.3209 20.7663 64.2485 20.8717C64.194 20.7663 64.0854 20.6689 64.0854 20.5635C64.0673 19.7447 64.0673 18.9257 64.0854 18.0987C64.0854 17.9933 64.194 17.8961 64.2575 17.7988C64.3209 17.8961 64.4387 17.9852 64.4478 18.0825C64.4749 18.3095 64.4568 18.5447 64.4568 18.8365ZM45.1642 19.7447C45.1732 19.015 45.6172 18.5933 46.3693 18.6014C47.0763 18.6095 47.5203 19.0474 47.5203 19.7528C47.5203 20.4906 47.0763 20.9203 46.3421 20.9203C45.6082 20.9203 45.1642 20.4744 45.1642 19.7447ZM47.1034 19.7447C47.1034 19.2176 46.7953 18.869 46.3421 18.869C45.8891 18.869 45.581 19.2257 45.572 19.7528C45.572 20.296 45.8982 20.6689 46.3693 20.6527C46.8225 20.6284 47.1125 20.2798 47.1034 19.7447ZM84.4565 19.7609C84.4474 20.4906 84.0034 20.9203 83.2602 20.9122C82.5353 20.9041 82.0913 20.45 82.1004 19.7203C82.1185 18.9988 82.5715 18.5771 83.3238 18.5933C84.0306 18.6095 84.4655 19.0636 84.4565 19.7609ZM82.5082 19.7447C82.4991 20.2636 82.7981 20.6284 83.2512 20.6527C83.7225 20.6689 84.0487 20.296 84.0487 19.7528C84.0487 19.2338 83.7315 18.8771 83.2875 18.869C82.8343 18.8608 82.5172 19.2176 82.5082 19.7447ZM22.292 18.7879C22.5729 18.723 22.8357 18.6176 23.0985 18.6014C23.5968 18.5771 23.8777 18.8203 23.905 19.2663C23.9322 19.7122 23.9231 20.1582 23.905 20.6041C23.905 20.6932 23.7872 20.7744 23.7237 20.8555C23.6603 20.7744 23.5425 20.6932 23.5334 20.6041C23.5153 20.2148 23.5244 19.8257 23.5153 19.4446C23.5063 19.1204 23.3613 18.8771 22.9716 18.8771C22.6 18.8771 22.3282 19.0474 22.301 19.4122C22.2739 19.7852 22.301 20.1582 22.2648 20.5311C22.2558 20.6446 22.1289 20.7501 22.0563 20.8636C21.993 20.7582 21.8751 20.6608 21.8751 20.5554C21.857 20.0203 21.857 19.4853 21.8751 18.95C21.8751 18.8446 21.9566 18.7392 21.993 18.6339C22.1108 18.6987 22.2194 18.7555 22.292 18.7879ZM9.71403 19.7933C9.70498 20.5311 9.26098 20.9365 8.49971 20.9203C7.79291 20.9041 7.38512 20.4663 7.39417 19.7447C7.40323 19.0069 7.82912 18.5933 8.59038 18.6014C9.31529 18.6014 9.72308 19.0393 9.71403 19.7933ZM7.79291 19.7609C7.79291 20.4095 8.23691 20.7825 8.78063 20.6041C9.19747 20.4663 9.42407 19.9716 9.28814 19.4689C9.18841 19.096 8.93481 18.8527 8.48161 18.8771C8.04667 18.8933 7.79291 19.2338 7.79291 19.7609ZM56.1834 20.1258C56.4009 20.2474 56.5186 20.3284 56.6545 20.3933C56.854 20.4906 57.0623 20.6446 57.2527 20.6284C57.452 20.6122 57.6334 20.4176 57.8236 20.3041C57.6786 20.1825 57.5608 20.0284 57.3887 19.9554C57.153 19.8501 56.8721 19.8338 56.6364 19.7366C56.2287 19.5743 56.1291 19.1366 56.41 18.8446C56.8449 18.3907 57.8779 18.5771 58.1679 19.2825C57.9324 19.1771 57.8055 19.1122 57.6696 19.0636C57.4792 18.9907 57.2799 18.8771 57.0896 18.8852C56.9356 18.8933 56.7905 19.0636 56.6455 19.1609C56.7633 19.2663 56.863 19.4122 57.008 19.4689C57.2618 19.5743 57.5517 19.6069 57.8145 19.696C58.2857 19.8663 58.3945 20.3041 58.0683 20.6365C57.742 20.969 57.298 20.9609 56.863 20.8879C56.4824 20.8312 56.2468 20.6122 56.1834 20.1258ZM10.865 18.6258C11.5264 18.6501 11.4087 19.1122 11.5627 19.3636C11.7349 19.6636 11.8255 19.996 11.9977 20.4338C12.1698 20.0122 12.2786 19.6717 12.4507 19.3554C12.5957 19.096 12.5142 18.6582 13.1485 18.6014C12.8223 19.3636 12.5504 20.0608 12.2333 20.7339C12.1155 20.9771 11.8617 20.9365 11.753 20.7013C11.454 20.0527 11.1912 19.3798 10.865 18.6258ZM86.3776 18.569C86.5497 18.6176 86.6947 18.6582 86.9848 18.7392C86.6947 18.8527 86.5406 18.9095 86.3595 18.9824C86.3595 19.4934 86.3685 20.0122 86.3504 20.5392C86.3414 20.6527 86.2235 20.7582 86.1511 20.8717C86.0876 20.7663 85.9879 20.6689 85.9788 20.5635C85.9517 20.2231 85.9698 19.8744 85.9698 19.5338C85.9698 19.2338 86.0966 18.8852 85.6798 18.8365C85.7976 18.5771 85.9245 18.3662 85.9969 18.1474C86.0967 17.8312 86.5225 17.6041 86.8579 17.7338C86.9122 17.7581 86.9939 17.8554 86.9848 17.888C86.9575 17.9528 86.876 18.0177 86.8035 18.042C86.3776 18.1555 86.3776 18.1474 86.3776 18.569ZM43.6418 18.569C43.8139 18.6176 43.9589 18.6582 44.1039 18.6987C44.113 18.7311 44.113 18.7717 44.122 18.8041C43.968 18.8527 43.823 18.9095 43.6236 18.9743C43.6236 19.4934 43.6328 20.0203 43.6145 20.5554C43.6145 20.6608 43.5059 20.7663 43.4514 20.8636C43.379 20.7582 43.2612 20.6527 43.2521 20.5392C43.225 20.2148 43.234 19.8825 43.2431 19.5581C43.2612 19.2338 43.2974 18.9176 42.9439 18.8203C43.0617 18.5771 43.1796 18.3662 43.2521 18.1474C43.3517 17.8312 43.7687 17.6041 44.1039 17.7338C44.1673 17.7581 44.2489 17.8474 44.2308 17.8797C44.2036 17.9447 44.122 18.0339 44.0587 18.0339C43.6418 18.0339 43.5964 18.2527 43.6418 18.569ZM41.3853 18.5528C41.5394 18.6095 41.6843 18.6582 41.8657 18.723C41.6662 18.869 41.4034 18.9662 41.3944 19.0879C41.3491 19.5176 41.3853 19.9473 41.4034 20.3771C41.4034 20.4419 41.5213 20.4987 41.5848 20.5635C41.6662 20.6446 41.7388 20.7258 41.8203 20.8068C41.7024 20.8393 41.5848 20.896 41.4669 20.896C41.1406 20.8798 41.0047 20.6851 40.9956 20.4176C40.9866 20.077 41.0137 19.7285 40.9775 19.3879C40.9594 19.169 40.8507 18.9581 40.7692 18.6906L41.2132 17.8961C41.2584 17.9123 41.2946 17.9285 41.3401 17.9447C41.3491 18.1474 41.3672 18.35 41.3853 18.5528ZM71.0902 18.7068C71.2262 18.4636 71.3802 18.1798 71.5342 17.9042C71.5795 17.9204 71.6159 17.9366 71.6611 17.9528L71.7154 18.5609C71.8695 18.6176 72.0144 18.6663 72.1867 18.7311C71.9873 18.8771 71.7245 18.9824 71.7154 19.096C71.6792 19.5419 71.7154 19.9879 71.7426 20.4338C71.7426 20.4825 71.8514 20.5311 71.9149 20.5797C71.9963 20.6446 72.0779 20.7177 72.1596 20.7825C72.0327 20.823 71.9058 20.9041 71.788 20.9041C71.4617 20.896 71.3257 20.6932 71.3167 20.4257C71.3076 20.0851 71.3348 19.7366 71.2986 19.396C71.2714 19.1771 71.1717 18.9662 71.0902 18.7068ZM61.7384 18.6906C61.8651 18.4636 62.0193 18.1717 62.2277 17.7826C62.4271 18.2041 62.1098 18.6906 62.7623 18.7879C62.6264 18.8527 62.4995 18.9095 62.3364 18.9907C62.3364 19.396 62.3183 19.8095 62.3455 20.2231C62.3545 20.3447 62.5086 20.4663 62.5992 20.5797C62.6535 20.6527 62.708 20.7258 62.7533 20.8068C62.6717 20.8393 62.5902 20.9041 62.5086 20.9041C62.1824 20.9122 61.9649 20.7987 61.9558 20.4663C61.9558 20.1258 61.9648 19.7771 61.9377 19.4365C61.9196 19.2095 61.8199 18.9824 61.7384 18.6906ZM89.8936 18.6906C90.0115 18.4717 90.1564 18.1798 90.3105 17.888C90.3557 17.9042 90.4011 17.9123 90.4464 17.9285C90.4555 18.1312 90.4736 18.3257 90.4826 18.5528C90.6095 18.6014 90.7454 18.6582 90.972 18.7474C90.256 18.9581 90.5098 19.4284 90.4645 19.8095C90.4192 20.2231 90.4192 20.6122 91.1532 20.742C90.3557 21.0014 90.102 20.8636 90.0839 20.3447C90.0748 20.077 90.102 19.8095 90.0748 19.5419C90.0567 19.2744 89.966 18.9988 89.8936 18.6906ZM50.257 18.7798C50.1482 18.8365 50.0394 18.95 49.9306 18.95C49.5138 18.9338 49.3598 19.1447 49.3326 19.4689C49.3054 19.8419 49.3235 20.2148 49.2964 20.5797C49.2873 20.6851 49.1695 20.7744 49.097 20.8717C49.0336 20.7744 48.9067 20.6689 48.9067 20.5716C48.8886 20.0203 48.8886 19.4689 48.9067 18.9257C48.9067 18.8284 49.0064 18.7311 49.0607 18.642C49.1514 18.7068 49.2419 18.7636 49.251 18.7717C49.5566 18.7143 49.8617 18.6548 50.1663 18.5933C50.2025 18.6501 50.2298 18.7149 50.257 18.7798ZM5.4278 18.7636C5.68155 18.7068 5.908 18.642 6.1346 18.6176C6.18906 18.6095 6.26148 18.7392 6.32484 18.8041C6.24337 18.8527 6.16176 18.9581 6.08934 18.95C5.63614 18.9095 5.49116 19.1528 5.45495 19.477C5.41874 19.8501 5.43685 20.2231 5.40969 20.5879C5.40064 20.6851 5.30092 20.7663 5.24661 20.8555C5.17404 20.7663 5.04716 20.6689 5.03811 20.5797C5.02001 20.0284 5.02001 19.477 5.03811 18.9257C5.03811 18.8203 5.11973 18.723 5.16499 18.6258C5.28281 18.6906 5.39159 18.7474 5.4278 18.7636ZM79.7896 18.5123C79.9145 18.5975 80.0384 18.684 80.1612 18.7717C80.4149 18.7149 80.6323 18.6501 80.8589 18.6258C80.9132 18.6176 80.9948 18.7474 81.0582 18.8203C80.9948 18.869 80.9223 18.9743 80.868 18.9662C80.2426 18.9014 80.1974 19.2906 80.1702 19.6717C80.1521 19.996 80.1702 20.3284 80.1521 20.6527C80.1521 20.7258 80.0433 20.7987 79.989 20.8798C79.9165 20.8149 79.7896 20.7582 79.7896 20.6932C79.7805 20.0041 79.7896 19.3311 79.7896 18.5123ZM35.7579 19.3554C35.7579 19.769 35.7669 20.1905 35.7488 20.6041C35.7488 20.6932 35.631 20.7744 35.5677 20.8636C35.5041 20.7825 35.3773 20.7013 35.3773 20.6203C35.3592 19.769 35.3592 18.9176 35.3773 18.0744C35.3773 17.9771 35.5132 17.888 35.5767 17.7988C35.631 17.888 35.7398 17.9771 35.7398 18.0663C35.7669 18.496 35.7579 18.9257 35.7579 19.3554ZM20.3256 19.7447C20.3256 20.0446 20.3437 20.3365 20.3165 20.6365C20.3073 20.7177 20.1806 20.7906 20.108 20.8636C20.0537 20.7906 19.954 20.7177 19.945 20.6365C19.9359 20.0446 19.9269 19.4527 19.945 18.8527C19.945 18.7717 20.0718 18.6987 20.1443 18.6258C20.1987 18.6987 20.2983 18.7717 20.3073 18.8527C20.3346 19.1528 20.3256 19.4527 20.3256 19.7447ZM14.8158 19.7285C14.8158 20.0365 14.8249 20.3528 14.8068 20.6608C14.7977 20.7339 14.689 20.7987 14.6256 20.8636C14.5622 20.7987 14.4444 20.7258 14.4444 20.6608C14.4263 20.0527 14.4263 19.4446 14.4444 18.8365C14.4444 18.7636 14.5622 18.6987 14.6256 18.6339C14.689 18.6987 14.7977 18.7636 14.8068 18.8365C14.8249 19.1366 14.8158 19.4284 14.8158 19.7285ZM88.4618 19.8014C88.4618 20.0689 88.48 20.3365 88.4527 20.6041C88.4437 20.6932 88.3441 20.7825 88.2896 20.8636C88.2172 20.7825 88.0903 20.7096 88.0903 20.6284C88.0722 20.0365 88.0722 19.4446 88.0903 18.8527C88.0903 18.7798 88.199 18.7068 88.2625 18.6339C88.3349 18.7149 88.4527 18.7879 88.4618 18.869C88.48 19.1771 88.4618 19.4934 88.4618 19.8014Z" fill="#32448C"/>
</svg>
