<svg width="91" height="44" viewBox="0 0 91 44" fill="none" xmlns="http://www.w3.org/2000/svg">
    <path fill-rule="evenodd" clip-rule="evenodd" d="M90.5579 13.6111C90.5306 21.0611 83.9257 26.9545 75.7897 27.0193C67.4814 27.0842 60.795 21.1422 60.641 13.9598C60.487 6.63957 66.9831 0.340785 75.3728 0.275992C83.8171 0.202965 90.5579 6.17752 90.5579 13.6111ZM76.0614 18.0941C76.0614 19.7883 76.0523 21.4826 76.0706 23.1768C76.0796 23.9794 76.6051 24.2794 77.357 23.8902C80.1084 22.4893 82.8537 21.0788 85.5927 19.6586C86.3629 19.2614 86.7524 18.6616 86.7524 17.8266C86.7343 14.9082 86.7434 11.9817 86.7434 9.06349C86.7434 7.92044 86.2632 7.6448 85.1217 8.14735C82.4943 9.3066 79.8759 10.4739 77.2484 11.6251C76.433 11.9817 76.0523 12.5168 76.0614 13.3275C76.0796 14.9163 76.0614 16.5052 76.0614 18.0941ZM75.1102 18.167C75.1102 16.5376 75.083 14.9082 75.1192 13.2788C75.1373 12.4682 74.7476 11.9736 73.9686 11.6332C71.2685 10.4577 68.5868 9.2661 65.8959 8.08256C64.863 7.6286 64.4282 7.86361 64.4282 8.88504C64.4191 11.6818 64.4463 14.4704 64.4101 17.2672C64.392 18.5157 64.9627 19.3831 66.1949 19.991C68.7136 21.2394 71.1961 22.5526 73.6967 23.8335C74.5847 24.2875 75.1011 24.0361 75.1102 23.1282C75.1192 21.4745 75.1102 19.8208 75.1102 18.167ZM75.6628 11.1468C75.989 11.0414 76.3332 10.9603 76.6504 10.8225C79.4411 9.62336 82.2256 8.41281 85.0039 7.19085C85.2304 7.09353 85.3935 6.86662 85.5837 6.7045C85.3844 6.57478 85.2032 6.39633 84.9858 6.30724C82.4489 5.38314 79.903 4.48319 77.3661 3.54289C76.2064 3.11323 75.083 3.10513 73.9324 3.53479C71.4407 4.4427 68.9401 5.33441 66.4485 6.25865C66.204 6.34774 66.0409 6.59908 65.8324 6.77739C66.0228 6.93951 66.1857 7.15035 66.4214 7.25564C69.1757 8.47172 71.939 9.67146 74.7024 10.8631C75.0014 10.9847 75.3276 11.0495 75.6628 11.1468Z" fill="#32448C"/>
    <path fill-rule="evenodd" clip-rule="evenodd" d="M41.4147 18.6538C42.4203 17.8026 43.3355 17.0163 44.2505 16.238C49.5507 11.7308 54.842 7.21547 60.1512 2.72453C60.6224 2.32727 61.1388 1.90571 61.7276 1.695C62.543 1.39493 63.5034 1.80839 63.9203 2.47319C64.3551 3.15405 64.2101 4.02956 63.5306 4.62133C61.918 6.01572 60.2871 7.40998 58.6653 8.79627L48.8259 17.2351C46.2982 19.3996 43.7793 21.5803 41.2244 23.7203C40.8257 24.0526 40.3183 24.4013 39.811 24.4904C38.4248 24.7336 37.4916 24.0202 37.5006 22.7475C37.5278 17.3891 37.5822 12.0308 37.6275 6.67229C37.6365 5.44825 37.6546 4.21611 37.6909 2.99193C37.7182 2.31107 38.1439 1.83269 38.8415 1.60578C39.5211 1.38683 40.2006 1.43556 40.7804 1.85712C41.3422 2.26234 41.478 2.82172 41.478 3.44589C41.4328 8.35852 41.4056 13.2791 41.3694 18.1917C41.3694 18.3051 41.3966 18.4186 41.4147 18.6538ZM6.96775 18.6781C9.7583 16.2948 12.4582 13.9925 15.1582 11.6821C18.7914 8.58543 22.4245 5.49684 26.0486 2.39206C26.6555 1.87332 27.3169 1.48416 28.1958 1.64627C28.9116 1.77599 29.4461 2.14086 29.6636 2.79742C29.8901 3.51081 29.6908 4.13498 29.0927 4.64576C27.7609 5.78868 26.4291 6.92363 25.0882 8.06668C21.9986 10.7175 18.9 13.3683 15.8106 16.0192C12.7391 18.6538 9.65858 21.2802 6.58712 23.9229C5.88046 24.531 5.07409 24.7093 4.1772 24.3932C3.26205 24.0688 3.01749 23.3556 3.02655 22.5287C3.08086 16.4488 3.12612 10.3769 3.18058 4.2971C3.18058 3.85125 3.20774 3.40539 3.25299 2.96764C3.36177 2.06783 4.05032 1.51655 5.04693 1.50035C6.12517 1.47606 6.86803 1.9705 6.9768 2.88665C7.05827 3.55131 6.98585 4.23231 6.98585 4.91317C6.9768 8.61796 6.96775 12.3307 6.96775 16.0354V18.6781Z" fill="#32448C"/>
    <path fill-rule="evenodd" clip-rule="evenodd" d="M72.0929 39.2444V32.0134C72.0929 31.1055 72.0929 30.1895 72.1019 29.2816C72.111 28.4628 72.6002 27.9764 73.3976 27.9845C74.1768 27.9926 74.657 28.4951 74.657 29.3059C74.6298 33.5456 74.5846 37.7771 74.5573 42.0168C74.5573 42.6167 74.4123 43.1113 73.7147 43.3382C73.0352 43.5571 72.5278 43.3139 72.0657 42.8923C68.2152 39.366 64.3645 35.8316 60.514 32.3052C60.3961 32.1999 60.2785 32.1026 60.0338 31.9081C60.0066 32.2323 59.9795 32.443 59.9795 32.6539L59.8707 41.9925C59.8616 42.8275 59.4086 43.3058 58.6386 43.3139C57.805 43.322 57.3248 42.8437 57.3339 41.9682C57.3701 37.6718 57.4063 33.3673 57.4879 29.0707C57.497 28.7222 57.805 28.2763 58.1221 28.0493C58.5841 27.7251 59.1731 27.8386 59.6261 28.1709C59.9885 28.4385 60.3056 28.7546 60.6318 29.0626L71.4859 39.0175C71.5946 39.1229 71.7214 39.2039 71.8393 39.3012C71.9298 39.2769 72.0114 39.2607 72.0929 39.2444ZM42.9371 33.8455C44.9394 32.054 46.8602 30.3273 48.7901 28.6006C48.9532 28.4547 49.1253 28.3006 49.3065 28.1628C49.7867 27.7981 50.3122 27.717 50.8921 27.944C51.4538 28.1628 51.5987 28.6006 51.5987 29.0952C51.6078 29.9462 51.6078 30.7893 51.5987 31.6406C51.5625 35.0696 51.5171 38.5067 51.4719 41.9358C51.4628 42.8356 50.9554 43.2815 50.0585 43.2166C49.3065 43.1599 48.926 42.7302 48.926 41.9439C48.9351 38.8311 48.9532 35.7099 48.9622 32.5971V31.8108C48.627 32.0945 48.4186 32.2728 48.2101 32.4511C46.824 33.6915 45.456 34.9561 44.0515 36.1802C43.3268 36.8125 42.5295 36.7801 41.8136 36.1315C40.4288 34.8843 39.0576 33.6251 37.7003 32.354C37.4919 32.1593 37.3651 31.9 37.202 31.6649L36.8486 31.8351V33.6428L36.8215 41.7169C36.8215 42.2763 36.6856 42.7869 36.0423 43.0302C35.1273 43.3706 34.2575 42.8437 34.2483 41.9115C34.2393 40.4686 34.2756 39.0337 34.2847 37.5907C34.3028 34.8346 34.3028 32.0783 34.3118 29.3221C34.3118 29.1923 34.3118 29.0707 34.3209 28.941C34.3661 28.3899 34.6018 27.9602 35.2178 27.7575C35.8068 27.571 36.296 27.7332 36.7037 28.1142C38.1805 29.4599 39.6392 30.8136 41.107 32.1674C41.6959 32.7268 42.2938 33.2619 42.9371 33.8455ZM29.9628 38.4257C27.7251 38.4257 25.5506 38.4743 23.3761 38.4014C22.4158 38.369 21.7454 38.6121 21.093 39.2282C19.8789 40.355 18.5832 41.417 17.3059 42.487C17.0702 42.6816 16.7802 42.868 16.4723 42.9411C15.8562 43.087 15.2763 42.9816 14.941 42.4222C14.6239 41.8871 14.7599 41.3927 15.231 40.9792C16.2276 40.1118 17.2423 39.2444 18.248 38.3852C22.1439 35.0453 26.0399 31.7135 29.9357 28.3737C30.1085 28.2272 30.29 28.0892 30.4794 27.9602C30.9323 27.6441 31.4216 27.6115 31.9472 27.8224C32.4726 28.0331 32.6448 28.4466 32.6448 28.9086C32.6086 33.205 32.5722 37.5097 32.5179 41.8061C32.5088 42.6654 32.0648 43.087 31.2313 43.0787C30.3887 43.0787 29.9538 42.6492 29.9447 41.798C29.9628 40.728 29.9628 39.6497 29.9628 38.4257ZM29.972 36.2126V31.6649C28.1781 33.205 26.5018 34.6561 24.6989 36.2126H29.972ZM90.467 38.2393C90.467 38.977 90.5304 39.7228 90.4399 40.4605C90.3946 40.8495 90.1771 41.3034 89.86 41.5548C87.1691 43.6869 84.0615 44.1975 80.7454 43.0787C77.4566 41.9682 75.6083 39.7228 75.2096 36.5854C74.6751 32.3701 77.973 28.552 82.7658 28.0007C85.4568 27.6927 87.8758 28.3411 89.9054 30.0112C90.6754 30.6434 90.7842 31.3001 90.2133 31.827C89.5973 32.4025 88.8724 32.3702 88.0933 31.7377C86.3356 30.3111 84.2971 29.849 82.0501 30.4975C79.785 31.1542 78.3535 32.5728 77.8461 34.6723C77.3116 36.8773 78.3625 39.058 80.5462 40.4036C82.4849 41.5953 85.2212 41.6116 87.2506 40.4605C87.7127 40.201 87.9484 39.9173 87.9303 39.3984C87.8939 38.5716 87.9483 37.7447 87.9846 36.926C88.0117 36.1721 88.4557 35.7911 89.2711 35.7911C90.005 35.7911 90.5033 36.2126 90.5395 36.9017C90.5668 37.3476 90.5485 37.7934 90.5485 38.2393H90.467ZM15.376 38.1905C15.376 38.5311 15.3307 38.8715 15.385 39.2039C15.5662 40.2658 14.9863 40.9387 14.0894 41.5467C8.87973 45.0973 1.07894 42.2601 0.154736 36.464C-0.542865 32.0945 2.48334 28.2682 7.34859 27.5224C10.1844 27.0847 12.7485 27.7657 14.8867 29.5491C15.5119 30.0679 15.6024 30.8217 15.1222 31.3082C14.6058 31.827 13.6999 31.8108 13.0385 31.2676C11.1629 29.7112 8.9885 29.2816 6.60573 30.1003C4.1504 30.9434 2.746 32.6458 2.61007 34.9803C2.40172 38.7013 6.12553 41.2791 9.73151 40.7361C10.0304 40.6874 10.3384 40.6469 10.6284 40.5576C12.6488 39.9659 12.8119 39.7552 12.8209 37.8987C12.8209 37.3881 12.8119 36.8773 12.839 36.3747C12.8844 35.6856 13.3828 35.2479 14.0985 35.2479C14.8234 35.2398 15.3669 35.7182 15.4031 36.4152C15.4212 36.7071 15.376 37.007 15.376 37.3069C15.376 37.5907 15.385 37.8906 15.376 38.1905C15.376 38.1905 15.385 38.1905 15.376 38.1905Z" fill="#32448C"/>
    <path fill-rule="evenodd" clip-rule="evenodd" d="M35.3454 12.6868C35.3454 15.1431 35.3544 17.5994 35.3454 20.0556C35.3454 21.0527 35.3001 22.0418 35.282 23.0388C35.2639 23.9954 34.53 24.6926 33.4881 24.7412C32.4734 24.7898 31.4948 24.0683 31.4858 23.1361C31.4586 20.8663 31.513 18.6045 31.5311 16.3348C31.5492 14.7864 31.5763 13.2462 31.5854 11.6978C31.6125 8.99025 31.676 6.27463 31.6489 3.56697C31.6308 2.22941 32.6274 1.65384 33.5786 1.63764C34.7202 1.61334 35.4813 2.39153 35.4813 3.59127C35.4723 6.17731 35.4361 8.76334 35.418 11.3411V12.6787C35.3906 12.6868 35.3725 12.6868 35.3454 12.6868Z" fill="#32448C"/>
    <path fill-rule="evenodd" clip-rule="evenodd" d="M55.8843 35.6211C55.8843 37.7612 55.8933 39.8932 55.8843 42.0333C55.8843 42.8278 55.404 43.2899 54.6339 43.298C53.8458 43.3061 53.3292 42.8116 53.3383 42.0009C53.3746 37.6802 53.4199 33.3675 53.4651 29.0467C53.4742 28.3252 53.9725 27.8631 54.7155 27.8631C55.5128 27.8631 56.0021 28.309 56.0111 29.0872C56.0202 31.2679 56.0111 33.4485 56.0111 35.6292C55.9748 35.6211 55.9295 35.6211 55.8843 35.6211ZM85.484 11.5611C85.3209 11.9987 85.185 12.5419 84.9041 13.012C84.7682 13.2391 84.3424 13.466 84.0615 13.4417C83.7987 13.4255 83.4544 13.1255 83.3458 12.8742C82.9834 12.0393 83.1011 11.1962 83.6266 10.4504C83.7987 10.1991 84.2155 9.92342 84.4965 9.94786C84.7682 9.97215 85.0672 10.3207 85.2393 10.5882C85.4024 10.8396 85.3933 11.1638 85.484 11.5611ZM80.2743 19.5134C80.1112 19.9188 79.9753 20.4862 79.6673 20.9645C79.2596 21.5969 78.4532 21.4915 78.1542 20.8105C77.7737 19.9269 77.9278 19.0514 78.4804 18.2732C78.6435 18.0463 79.0603 17.8111 79.323 17.8354C79.5858 17.8597 79.8848 18.1758 80.0298 18.4353C80.1838 18.6947 80.1838 19.0352 80.2743 19.5134ZM83.2008 15.5088C83.0015 16.0439 82.8656 16.6033 82.5847 17.0977C82.4578 17.3248 82.023 17.5598 81.7512 17.5436C81.4974 17.5274 81.1622 17.2112 81.0445 16.968C80.7002 16.206 80.7817 15.4116 81.2257 14.7144C81.4159 14.4064 81.878 14.0253 82.1861 14.0496C82.485 14.0741 82.7749 14.5442 82.9925 14.8604C83.1102 15.0225 83.0649 15.2738 83.092 15.4764C83.1283 15.4845 83.1646 15.5007 83.2008 15.5088ZM73.3976 20.1296C73.3342 20.397 73.3342 20.6971 73.1983 20.924C73.0443 21.1753 72.7726 21.532 72.5279 21.5482C72.2288 21.5644 71.7758 21.3536 71.6127 21.1104C71.0691 20.3241 70.9332 19.4486 71.3048 18.5569C71.5856 17.8921 72.3738 17.7787 72.7816 18.3948C73.1168 18.9054 73.2709 19.5134 73.4973 20.0728C73.4702 20.0971 73.434 20.1134 73.3976 20.1296ZM70.9332 14.0577C71.0963 13.1012 71.4134 12.5662 71.9571 12.5419C72.4735 12.5095 73.0624 13.0364 73.1802 13.8389C73.2617 14.4064 73.2436 15.0306 73.0714 15.5737C72.845 16.279 72.0567 16.36 71.64 15.7359C71.3048 15.2251 71.1598 14.6171 70.9332 14.0577ZM68.3693 12.404C68.2514 13.2391 67.9253 13.7903 67.4451 13.8389C66.9015 13.8956 66.4122 13.466 66.2672 12.6311C66.1766 12.1122 66.1948 11.5366 66.3397 11.026C66.521 10.3937 67.291 10.2883 67.6717 10.8477C68.0069 11.3178 68.1517 11.8853 68.3693 12.404ZM68.3693 17.8111C68.2514 18.2489 68.2152 18.6136 68.0521 18.9299C67.7984 19.4243 67.2005 19.4567 66.7927 19.0433C66.231 18.484 66.0408 17.0734 66.4303 16.4086C66.7565 15.8494 67.4541 15.8169 67.8165 16.4005C68.0974 16.8383 68.2062 17.3653 68.3693 17.8111ZM75.7805 8.11571C75.101 7.9131 74.4577 7.81577 73.914 7.55633C73.0805 7.14301 73.0624 6.3161 73.8054 5.77292C74.7385 5.08396 76.8133 5.10016 77.7375 5.79722C78.408 6.2999 78.417 7.11048 77.665 7.49964C77.1033 7.79958 76.4238 7.9212 75.7805 8.11571Z" fill="#32448C"/>
</svg>
