<svg width="54" height="55" viewBox="0 0 54 55" fill="none" xmlns="http://www.w3.org/2000/svg">
<path d="M41.5016 3.08191C39.9115 1.54175 37.9504 0.745117 35.5652 0.745117H17.7031C15.318 0.745117 13.3038 1.54175 11.7667 3.08191L2.27914 12.5353C0.795049 14.0224 0 15.9874 0 18.1649V36.3812C0 38.8774 0.848053 40.8424 2.54416 42.4888L11.5547 51.5173C13.3038 53.2699 15.318 54.1196 17.8621 54.0665H35.5122C37.9504 54.0665 39.9645 53.323 41.8196 51.5173L50.8302 42.4888C52.4733 40.8424 53.3743 38.8774 53.3743 36.3812V18.1649C53.3743 15.9874 52.5793 14.0224 51.0952 12.5353L41.5016 3.08191ZM49.7701 24.3786C49.7701 24.9628 49.5051 25.2815 48.922 25.2815H46.2189V23.3695C46.2189 21.9356 46.0069 21.2452 44.7878 21.2452H43.5687C42.3496 21.2452 42.1376 21.9887 42.1376 23.3695V25.2815H40.2825C38.8514 25.2815 38.1624 25.4939 38.1624 26.7154V27.99C38.1624 29.2115 38.9044 29.424 40.2825 29.424H42.1906V31.3359C42.1906 32.7698 42.4026 33.4602 43.6217 33.4602H44.8408C46.0599 33.4602 46.2719 32.7167 46.2719 31.3359V29.424H48.975C49.5051 29.424 49.7701 29.6895 49.8231 30.2206V36.3812C49.8231 37.8683 49.3991 38.9836 48.339 39.9926L39.3284 49.0212C38.2684 50.0833 37.1023 50.5613 35.6712 50.5613H17.6501C16.219 50.5613 15.0529 50.0833 13.9929 49.0212L4.98231 39.9926C3.92224 38.9305 3.44521 37.8683 3.49822 36.3812V18.5897C3.49822 17.1027 3.97525 15.8281 5.08832 14.7128L14.2049 5.41871C15.1059 4.51585 16.325 4.1972 17.6501 4.1972H35.6182C36.9433 4.1972 38.1094 4.46274 39.0634 5.41871L48.233 14.7128C49.2931 15.8281 49.8231 17.1027 49.8231 18.5897V24.3786H49.7701Z" fill="#32448C" fill-opacity="0.2"/>
</svg>
