<svg width="16" height="27" viewBox="0 0 16 27" fill="none" xmlns="http://www.w3.org/2000/svg">
<path d="M12.8692 13.1403C15.1483 11.4939 15.1483 9.79446 15.1483 8.41363V7.03279C14.8833 2.46543 13.3992 0.71283 8.09887 0.71283C2.79854 0.71283 1.31445 2.46543 1.04943 7.03279V8.41363C1.04943 9.79446 1.10243 11.4939 3.32857 13.1403C0.625404 14.2025 0.413391 16.4862 0.413391 19.5134C0.413391 23.9745 2.00349 26.2051 8.04586 26.3113C14.1412 26.2051 15.6783 23.9745 15.6783 19.5134C15.7843 16.4862 15.5723 14.2025 12.8692 13.1403ZM8.15187 4.48357C10.378 4.48357 11.2791 5.2802 11.2791 7.98876C11.2791 10.5911 10.378 11.4939 8.15187 11.4939C5.92573 11.4939 5.02468 10.5911 5.02468 7.98876C5.02468 5.2802 5.92573 4.48357 8.15187 4.48357ZM8.15187 22.5406C5.55471 22.5406 4.65365 21.5315 4.65365 18.9823C4.65365 16.4331 5.55471 15.2647 8.15187 15.2647C10.749 15.2647 11.6501 16.4331 11.6501 18.9823C11.6501 21.5315 10.696 22.5406 8.15187 22.5406Z" fill="#32448C" fill-opacity="0.2"/>
</svg>
