<svg width="156" height="41" viewBox="0 0 156 41" fill="none" xmlns="http://www.w3.org/2000/svg">
<path d="M56.7802 20.6632C56.7802 25.056 60.4 28.673 65.0481 28.673C66.8527 28.673 68.9197 27.8972 70.2207 26.3455C70.483 26.3455 70.483 26.0834 70.483 25.8213L68.6783 24.0076C68.416 23.7455 68.1642 23.7455 68.1642 24.0076C67.3878 24.5213 66.0973 25.0455 65.069 25.0455C62.488 25.0455 60.6728 22.9801 60.6728 20.3906C60.6728 18.0631 62.488 15.9978 65.069 15.9978C66.0973 15.9978 67.136 16.2599 68.1642 17.0252C68.1642 17.2873 68.4265 17.2873 68.6783 17.0252L70.2312 15.2219C70.4935 14.9598 70.4935 14.7082 70.2312 14.7082C68.9406 13.1566 67.136 12.6429 65.0586 12.6429C60.4 12.6533 56.7802 16.2703 56.7802 20.6632ZM77.7121 22.4664C77.7121 25.8213 80.5555 28.6625 83.913 28.6625C87.5327 28.6625 90.3761 25.8213 90.3761 22.4664V13.1671C90.3761 12.905 90.1138 12.905 89.862 12.905H87.2704C87.0186 12.905 86.7563 12.905 86.7563 13.1671V22.2043C86.7563 23.756 85.7176 25.0455 83.913 25.0455C82.3601 25.0455 81.3319 23.756 81.3319 22.2043V13.1671C81.3319 12.905 81.0696 12.905 80.8178 12.905H78.2367C77.9744 12.905 77.7226 12.905 77.7226 13.1671L77.7121 22.4664ZM98.9167 27.8867C98.9167 28.1488 99.179 28.4004 99.4308 28.4004H104.866C107.457 28.4004 109.776 26.5867 109.776 24.0076C109.776 21.9422 107.971 20.9043 106.67 20.3906C107.699 19.8769 109.262 18.5873 109.262 17.0357C109.262 14.4566 107.195 12.905 104.603 12.905H99.4308C99.1685 12.905 98.9167 12.905 98.9167 13.1671V27.8867ZM102.274 19.1115V16.0187H104.089C104.866 16.0187 105.642 16.5324 105.642 17.5704C105.642 18.3462 104.866 19.122 104.089 19.122H102.274V19.1115ZM102.274 25.3181V21.9527H104.089C105.118 21.9527 106.156 22.7285 106.156 23.5043C106.156 24.5423 105.38 25.3181 104.341 25.3181C104.331 25.3181 102.274 25.3181 102.274 25.3181ZM117.53 27.8867C117.53 28.1488 117.792 28.4004 117.792 28.4004H120.635C120.887 28.4004 120.887 28.1383 120.887 27.8867V13.1671C120.887 12.905 120.887 12.905 120.635 12.905H117.792C117.792 12.905 117.53 12.905 117.53 13.1671V27.8867ZM131.736 27.8867C131.736 28.1488 131.998 28.4004 132.261 28.4004H134.842C135.104 28.4004 135.356 28.1383 135.356 27.8867V16.0082H138.462C138.724 16.0082 138.976 15.7461 138.976 15.7461V13.1671C138.976 12.905 138.713 12.905 138.462 12.905H128.641C128.379 12.905 128.127 12.905 128.127 13.1671V15.7461C128.127 15.7461 128.389 16.0082 128.641 16.0082H131.736V27.8867ZM145.187 26.8593C145.701 27.373 147.254 28.673 150.36 28.673C153.455 28.673 155.532 26.3455 155.532 24.0181C155.532 20.9148 152.689 19.6252 151.136 18.8494C149.332 18.0736 148.545 17.5599 148.545 16.7841C148.545 16.2703 149.321 15.4945 150.097 15.4945C151.388 15.4945 152.941 16.7841 153.203 17.0462C153.465 17.0462 153.717 16.7841 153.98 16.7841L155.018 14.9808C155.281 14.7187 155.281 14.4671 155.018 14.205C154.242 13.6913 152.427 12.6533 150.097 12.6533C146.729 12.6533 144.935 14.7187 144.935 17.0462C144.935 19.6252 147.527 21.1769 149.332 21.9527C150.884 22.4664 151.661 23.2422 151.661 24.2802C151.661 25.056 151.147 25.5697 150.108 25.5697C148.555 25.5697 147.002 24.2802 147.002 24.2802C146.74 24.2802 146.488 24.0181 146.226 24.2802L145.198 26.3455C144.925 26.5971 144.925 26.5971 145.187 26.8593Z" fill="#524DA3"/>
<path d="M32.9945 37.711L26.2795 25.822H21.621L20.3305 25.0567L18.0012 21.1776V19.626L20.3305 15.7573L21.621 14.9815H26.2795L32.9945 2.84097H14.6438L13.3427 3.61679L4.29849 19.626V21.1776L13.3427 36.9352L14.6438 37.711H32.9945Z" fill="#F7CE39"/>
<path d="M35.5858 0L41.5348 10.0752L47.4839 20.4125L41.5348 30.4877L35.5858 40.825H23.95H12.0624L6.37562 30.4877L0.426575 20.402L6.37562 10.0647L12.0624 0H23.95H35.5858ZM26.2792 14.9817L33.0047 2.84118H23.9605H14.6539L21.6207 14.9817H23.95H26.2792ZM34.2847 3.617L27.0452 16.2713H22.3971L24.4641 19.6262H43.5913L38.9432 11.6163L34.2847 3.617ZM27.0556 24.2811L34.2952 36.9354L38.9537 28.9255L43.6018 21.1778H24.4641L22.3971 24.2811H27.0556ZM32.9942 37.7112L26.2687 25.8327H23.9395H21.6207L14.6434 37.7112H23.95H32.9942ZM4.29818 19.6262H18.0009L19.2915 17.5608L20.3197 15.7576L13.3424 3.617L8.9462 11.6268L4.29818 19.6262ZM18.0009 21.1778H4.29818L8.9462 28.9255L13.3424 36.9354L20.3302 25.0569L18.0009 21.1778ZM21.1066 23.5053L23.1735 20.402L21.1066 17.0471L19.3019 20.402L21.1066 23.5053Z" fill="#524DA3"/>
</svg>
