<svg width="53" height="42" viewBox="0 0 53 42" fill="none" xmlns="http://www.w3.org/2000/svg">
<path d="M9.80826 41.0769V38.3837C9.9297 37.5268 9.20105 36.7923 8.35095 36.6699C8.22951 36.6699 8.22951 36.6699 8.10807 36.6699C7.50086 36.6699 6.89365 36.9147 6.65077 37.4044C6.40788 36.9147 5.80067 36.6699 5.19347 36.6699C4.7077 36.6699 4.22193 36.9147 3.97905 37.2819V36.7923H3.00751V41.0769H3.97905V38.6285C3.85761 38.0165 4.34337 37.5268 4.82914 37.5268H4.95058C5.55779 37.5268 5.92212 37.894 5.92212 38.6285V41.0769H6.89365V38.6285C6.77221 38.0165 7.25798 37.5268 7.74374 37.5268H7.86519C8.47239 37.5268 8.83672 37.894 8.83672 38.6285V41.0769H9.80826ZM23.7741 36.7923H22.1953V35.4457H21.2238V36.7923H20.3737V37.6492H21.2238V39.6079C21.2238 40.5872 21.5881 41.1993 22.6811 41.1993C23.1669 41.1993 23.5312 41.0769 23.8955 40.832L23.6526 39.9751C23.4097 40.0975 23.1669 40.2199 22.8025 40.2199C22.3168 40.2199 22.1953 39.9751 22.1953 39.4854V37.5268H23.7741V36.7923ZM31.6678 36.6699C31.182 36.6699 30.8177 36.9147 30.5748 37.2819V36.7923H29.6033V41.0769H30.5748V38.6285C30.5748 37.894 30.8177 37.5268 31.5463 37.5268C31.7892 37.5268 31.9107 37.5268 32.1535 37.6492L32.3964 36.7923C32.1535 36.6699 31.9107 36.6699 31.6678 36.6699ZM19.645 37.1595C19.1593 36.7923 18.5521 36.6699 17.9449 36.6699C16.8519 36.6699 16.1232 37.1595 16.1232 38.0165C16.1232 38.8734 16.609 39.1182 17.5805 39.2406H18.0663C18.5521 39.363 18.7949 39.4854 18.7949 39.7303C18.7949 39.9751 18.4306 40.2199 17.8234 40.2199C17.3376 40.2199 16.8519 40.0975 16.3661 39.7303L15.8803 40.4648C16.3661 40.832 17.0948 41.0769 17.702 41.0769C18.9164 41.0769 19.645 40.4648 19.645 39.7303C19.645 38.9958 19.0378 38.6285 18.1877 38.5061H17.702C17.3376 38.5061 16.9733 38.3837 16.9733 38.0165C16.9733 37.6492 17.2162 37.5268 17.8234 37.5268C18.3092 37.5268 18.7949 37.6492 19.1593 37.894L19.645 37.1595ZM44.6621 36.6699C44.1763 36.6699 43.812 36.9147 43.5691 37.2819V36.7923H42.5975V41.0769H43.5691V38.6285C43.5691 37.894 43.812 37.5268 44.5406 37.5268C44.7835 37.5268 44.9049 37.5268 45.1478 37.6492L45.3907 36.7923C45.1478 36.6699 44.9049 36.6699 44.6621 36.6699ZM32.6393 38.9958C32.6393 40.2199 33.4894 41.1993 34.7038 41.3217C34.8253 41.3217 34.8253 41.3217 34.9467 41.3217C35.5539 41.3217 36.0397 41.1993 36.5255 40.832L36.0397 40.0975C35.6754 40.3423 35.311 40.4648 34.9467 40.4648C34.2181 40.4648 33.6108 39.8527 33.6108 39.1182C33.6108 38.3837 34.2181 37.7716 34.9467 37.7716C35.311 37.7716 35.7968 37.894 36.0397 38.1388L36.5255 37.4044C36.0397 37.0371 35.5539 36.9147 34.9467 36.9147C33.7323 36.7923 32.7608 37.7716 32.6393 38.9958C32.6393 38.8734 32.6393 38.8734 32.6393 38.9958ZM41.3831 38.9958V36.7923H40.4116V37.2819C40.0473 36.9147 39.5615 36.6699 39.0757 36.6699C37.8613 36.6699 36.7683 37.6492 36.7683 38.9958C36.7683 40.3424 37.7399 41.3217 39.0757 41.3217C39.5615 41.3217 40.0473 41.0768 40.4116 40.7096V41.1993H41.3831V38.9958ZM37.8613 38.9958C37.8613 38.2613 38.4685 37.7716 39.1972 37.7716C39.9258 37.7716 40.4116 38.3837 40.4116 39.1182C40.4116 39.8527 39.8044 40.3424 39.0757 40.3424C38.4685 40.3424 37.8613 39.8527 37.8613 38.9958ZM26.6887 36.6699C25.4742 36.6699 24.5027 37.7716 24.5027 38.9958C24.5027 40.2199 25.5957 41.1993 26.8101 41.1993C27.4173 41.1993 28.0245 40.9544 28.5103 40.5872L28.0245 39.8527C27.6602 40.0975 27.2959 40.3424 26.8101 40.3424C26.2029 40.3424 25.7171 39.8527 25.5957 39.2406H28.7532C28.7532 39.1182 28.7532 38.9958 28.7532 38.8733C28.8746 37.7716 28.0245 36.7923 26.9315 36.6699C26.9315 36.7923 26.8101 36.7923 26.6887 36.6699ZM26.6887 37.5268C27.2959 37.5268 27.7816 38.0165 27.7816 38.6285H25.5957C25.5957 38.0165 26.0815 37.5268 26.6887 37.5268ZM50.0055 38.9958V35.0784H49.034V37.4044C48.6696 37.0371 48.1839 36.7923 47.6981 36.7923C46.4837 36.7923 45.3907 37.7716 45.3907 39.1182C45.3907 40.4648 46.3622 41.4441 47.6981 41.4441C48.1839 41.4441 48.6696 41.1993 49.034 40.832V41.3217H50.0055V38.9958ZM46.4837 38.9958C46.4837 38.2613 47.0909 37.7716 47.8195 37.7716C48.5482 37.7716 49.034 38.3837 49.034 39.1182C49.034 39.8527 48.4267 40.3424 47.6981 40.3424C47.0909 40.3424 46.6051 39.8527 46.4837 38.9958ZM15.0303 38.9958V36.7923H14.0587V37.2819C13.6944 36.9147 13.2086 36.6699 12.7229 36.6699C11.5084 36.6699 10.4155 37.6492 10.4155 38.9958C10.4155 40.3424 11.387 41.3217 12.7229 41.3217C13.2086 41.3217 13.6944 41.0768 14.0587 40.7096V41.1993H15.0303V38.9958ZM11.6299 38.9958C11.6299 38.2613 12.2371 37.7716 12.9657 37.7716C13.6944 37.7716 14.1802 38.3837 14.1802 39.1182C14.1802 39.8527 13.573 40.3424 12.8443 40.3424C12.2371 40.3424 11.6299 39.8527 11.6299 38.9958Z" fill="white"/>
<path d="M33.8449 3.45074H19.7577V29.0358H33.8449V3.45074Z" fill="#FF5F00"/>
<path d="M20.6077 16.3043C20.6077 11.2852 22.9151 6.63342 26.8012 3.45059C19.7576 -2.05815 9.6779 -0.833971 4.09158 6.14376C-1.3733 13.2439 -0.158883 23.4045 6.7633 29.0357C12.5925 33.6875 20.8505 33.6875 26.6798 29.0357C22.9151 25.9752 20.6077 21.3234 20.6077 16.3043Z" fill="#EB001B"/>
<path d="M52.9005 16.0846C52.9005 25.021 45.7354 32.366 36.7487 32.366C33.1055 32.366 29.5837 31.1418 26.7905 28.9383C33.8341 23.4296 35.0485 13.1466 29.4622 6.16888C28.6121 5.18955 27.762 4.2102 26.7905 3.47571C33.8341 -2.03303 43.9138 -0.808855 49.3787 6.16888C51.6861 8.86204 52.9005 12.4121 52.9005 16.0846Z" fill="#F79E1B"/>
</svg>
