<svg width="85" height="29" viewBox="0 0 85 29" fill="none" xmlns="http://www.w3.org/2000/svg">
<path fill-rule="evenodd" clip-rule="evenodd" d="M60.9797 6.96644C62.9043 6.96644 64.4642 5.40724 64.4642 3.48453C64.4642 1.5607 62.9043 0 60.9797 0C59.0573 0 57.4981 1.5607 57.4981 3.48453C57.4981 5.40724 59.0573 6.96644 60.9797 6.96644ZM34.2928 8.84685C34.1355 9.24179 33.0038 12.4384 30.2669 15.7515V1.58541L22.9744 3.02669V28.7043H30.2669V20.7672C32.379 23.935 33.422 28.7043 33.422 28.7043H42.1569C41.2929 25.1124 37.5134 18.4892 37.5134 18.4892C40.9054 14.1886 42.3954 9.60605 42.6323 8.84685H34.2928ZM53.4644 8.5788C46.9326 8.78845 43.6169 11.7189 43.6169 17.5443V28.7043H50.7428V19.6037C50.7428 16.1154 51.1995 14.6202 55.3388 14.4776V8.68101C54.6422 8.53313 53.4644 8.5788 53.4644 8.5788ZM10.7441 11.6744C9.85088 11.6156 7.78292 11.482 7.78292 9.62027C7.78292 7.37374 10.7602 7.37374 11.8769 7.37374C13.8404 7.37374 16.3834 7.954 18.1995 8.4972C18.1995 8.4972 19.2125 8.85433 20.0746 9.22008L20.1547 9.2418V3.08921L20.0447 3.05664C17.9015 2.3068 15.4094 1.58541 10.789 1.58541C2.82266 1.58541 0 6.22633 0 10.202C0 12.4938 0.982318 17.8876 10.1058 18.5098C10.8792 18.5573 12.9318 18.6756 12.9318 20.5995C12.9318 22.1879 11.2514 23.1245 8.42494 23.1245C5.3275 23.1245 2.3229 22.3346 0.497897 21.5855V27.9223C3.22997 28.6384 6.30982 28.9963 9.91938 28.9963C17.7087 28.9963 21.1973 24.6055 21.1973 20.2536C21.1973 15.3191 17.2935 12.1131 10.7441 11.6744ZM57.4472 28.7043H64.5155V8.86931H57.4472V28.7043ZM77.8247 2.84999V28.7043H84.8941V1.58541L77.8247 2.84999ZM67.5096 2.84999L74.5723 1.58541V28.7043H67.5096V2.84999Z" fill="url(#paint0_linear)"/>
<defs>
<linearGradient id="paint0_linear" x1="22.9587" y1="2.06805e-07" x2="29.3378" y2="35.7654" gradientUnits="userSpaceOnUse">
<stop stop-color="#8C257D"/>
<stop offset="1" stop-color="#76348F"/>
</linearGradient>
</defs>
</svg>
