<svg width="103" height="34" viewBox="0 0 103 34" fill="none" xmlns="http://www.w3.org/2000/svg">
<path d="M45.0221 33.3959H36.7345L41.9182 1.26151H50.2054L45.0221 33.3959Z" fill="#00579F"/>
<path d="M75.0671 2.04839C73.4324 1.39819 70.8396 0.680298 67.6337 0.680298C59.4493 0.680298 53.686 5.05582 53.6506 11.3115C53.5826 15.9269 57.777 18.4904 60.9141 20.0294C64.1205 21.6019 65.2104 22.6283 65.2104 24.03C65.1778 26.1828 62.6195 27.1751 60.2334 27.1751C56.9245 27.1751 55.1516 26.6635 52.4573 25.4658L51.366 24.9524L50.2063 32.1659C52.1501 33.0537 55.7313 33.8415 59.4493 33.8761C68.1454 33.8761 73.8067 29.5683 73.8738 22.9018C73.9069 19.2438 71.6921 16.4408 66.9172 14.1503C64.0185 12.68 62.2433 11.6886 62.2433 10.1842C62.2773 8.81658 63.7448 7.41578 67.0169 7.41578C69.7112 7.34717 71.6908 7.99645 73.1904 8.64619L73.94 8.98742L75.0671 2.04839Z" fill="#00579F"/>
<path d="M86.0809 22.0118C86.7634 20.1657 89.3897 13.0209 89.3897 13.0209C89.3553 13.0895 90.0709 11.1407 90.4801 9.94438L91.0593 12.7133C91.0593 12.7133 92.6287 20.4052 92.9695 22.0118C91.6743 22.0118 87.7179 22.0118 86.0809 22.0118ZM96.311 1.26151H89.9005C87.9236 1.26151 86.4217 1.84218 85.5688 3.92771L73.2585 33.3954H81.9545C81.9545 33.3954 83.3862 29.4293 83.6939 28.5751C84.6479 28.5751 93.1073 28.5751 94.3346 28.5751C94.5725 29.7033 95.3235 33.3954 95.3235 33.3954H102.997L96.311 1.26151Z" fill="#00579F"/>
<path d="M29.8127 1.26151L21.6963 23.1741L20.8094 18.73C19.3089 13.602 14.6028 8.03061 9.35114 5.26036L16.7854 33.3618H25.5494L38.5763 1.26151H29.8127Z" fill="#00579F"/>
<path d="M14.1605 1.26379H0.826423L0.69001 1.91308C11.0914 4.57974 17.9801 11.0076 20.8103 18.7336L17.9116 3.96498C17.4344 1.91262 15.9679 1.33149 14.1605 1.26379Z" fill="#FAA61A"/>
</svg>
