<svg width="134" height="31" viewBox="0 0 134 31" fill="none" xmlns="http://www.w3.org/2000/svg">
<path d="M5.43169 25.7308V17.6495L0.0389404 3.18049H2.75107L6.72606 14.3441L11.2997 0.846436H13.7912L7.9154 17.7519V25.7308H5.43169Z" fill="#FF0000"/>
<path d="M21.4255 25.7305H19.3435C19.2342 25.3174 19.1604 24.8958 19.123 24.4702H18.9654C18.6302 24.9407 18.1846 25.3217 17.6678 25.5799C17.151 25.838 16.5788 25.9655 16.0013 25.951C13.7302 25.951 12.1838 24.2471 12.1838 21.1253C12.1838 17.7122 13.9193 15.5751 18.3668 15.5751H18.7134V14.6299C18.7134 12.5479 18.0176 11.6631 16.6314 11.6631C15.3685 11.6631 14.2973 12.3273 13.4808 13.052L13.003 10.8754C14.0964 10.0589 15.4242 9.61691 16.7889 9.61521C19.5956 9.61521 21.142 10.8124 21.142 14.6614V22.1362C21.1418 23.3398 21.2366 24.5417 21.4255 25.7305ZM18.7134 17.4365H18.4298C15.3685 17.4365 14.7069 18.7913 14.7069 20.8497C14.7069 22.6875 15.3055 23.8769 16.5684 23.8769C17.0004 23.8528 17.4205 23.7258 17.7936 23.5066C18.1667 23.2874 18.482 22.9823 18.7134 22.6166V17.4365ZM26.6607 25.7305H24.1928V9.80425H26.6529V11.1905H26.8104C27.186 10.718 27.6596 10.3324 28.1985 10.0605C28.7374 9.78855 29.3288 9.63664 29.9321 9.61521C32.0141 9.61521 33.1168 10.7809 33.1168 13.2095V25.7305H30.6278V13.43C30.6278 12.2328 30.0896 11.8206 29.1445 11.8206C28.0943 11.8206 27.22 12.6083 26.6529 13.3959L26.6607 25.7305ZM35.5533 18.3791C35.5533 12.4822 37.7613 9.61259 40.9486 9.61259C41.6651 9.60913 42.3665 9.81738 42.965 10.2112V3.18015H45.4251V25.7305H43.5873L43.3982 24.4702H43.2407C42.5449 25.3524 41.6654 25.951 40.3684 25.951C37.2572 25.951 35.5533 23.3019 35.5533 18.3817V18.3791ZM42.965 12.3982C42.7287 12.1446 42.44 11.9454 42.1191 11.8144C41.7981 11.6833 41.4525 11.6237 41.1062 11.6395C39.1187 11.6395 38.1709 14.6378 38.1709 17.8855C38.1709 21.6058 38.8666 23.8769 40.6651 23.8769C41.1245 23.8967 41.5808 23.792 41.9857 23.5739C42.3905 23.3557 42.7289 23.0323 42.965 22.6376V12.3982ZM53.186 25.9589C49.9042 25.9589 47.8852 23.3334 47.8852 18.4526C47.8852 13.3434 49.3056 9.62309 52.6793 9.62309C55.3284 9.62309 57.0639 11.608 57.0639 17.0007V18.3581H50.4477C50.4477 21.9524 51.4585 23.8454 53.4145 23.8454C54.5114 23.8176 55.5713 23.4425 56.4416 22.7742L57.0114 24.6593C55.9243 25.5198 54.5723 25.9764 53.186 25.951V25.9589ZM50.4739 16.3365H54.5408C54.5408 13.6243 54.0997 11.6368 52.6793 11.6368C51.167 11.6316 50.6288 13.4931 50.4739 16.3365ZM67.7549 9.84101L64.7907 17.279L68.1014 25.7305H65.5494L63.0867 19.1667L60.6897 25.7305H58.2637L61.5745 17.4996L58.5867 9.83575H61.1413L63.1918 15.6118L65.3657 9.83575L67.7549 9.84101Z" fill="white"/>
<path d="M76.5464 10.1519L75.8848 25.574H74.593L75.5697 3.02371H77.3025L80.6789 16.9388C80.9327 17.9646 81.1082 19.0081 81.204 20.0605H81.267C81.3777 19.0072 81.5673 17.9637 81.8341 16.9388L85.3129 3.03421H87.0772L88.0565 25.5845H86.5416L85.88 10.0364C85.7855 8.26943 85.817 6.91206 85.817 5.5258H85.7225C85.555 6.89667 85.3025 8.2558 84.9663 9.5953L81.8157 22.0532H80.587L77.4627 9.5953C77.1153 8.27034 76.8721 6.92022 76.7354 5.55731H76.6488C76.6488 6.78603 76.6094 8.616 76.5464 10.1519Z" fill="white"/>
<path d="M90.577 17.8771C90.577 12.5789 92.6905 9.51758 95.4341 9.51758C98.1778 9.51758 100.291 12.2323 100.291 17.6881C100.291 22.9548 98.1909 26.045 95.4341 26.045C92.6774 26.045 90.577 23.3014 90.577 17.8771ZM98.8105 17.7826C98.8105 12.7942 97.2956 10.7489 95.4341 10.7489C93.5727 10.7489 92.0604 12.957 92.0604 17.7826C92.0604 22.7343 93.5727 24.8478 95.4341 24.8478C97.2956 24.8478 98.8105 22.5767 98.8105 17.7826Z" fill="white"/>
<path d="M104.489 14.1226V25.7298H103.005V9.83514H104.363L104.426 12.4606H104.489C104.93 11.2844 106.19 9.50958 108.335 9.50958C110.48 9.50958 111.68 10.8223 111.68 13.3585V25.7298H110.196V13.5555C110.196 11.6625 109.503 10.7803 108.051 10.7803C106.473 10.7803 105.276 12.1062 104.489 14.1226Z" fill="white"/>
<path d="M119.22 24.7532C121.321 24.7532 122.437 23.0492 122.437 23.0492L122.909 24.2464C122.473 24.8173 121.91 25.278 121.264 25.5913C120.618 25.9045 119.907 26.0617 119.189 26.0501C115.823 26.0501 114.269 22.9862 114.269 17.7825C114.269 12.5788 116.222 9.50958 118.905 9.50958C121.649 9.50958 123.413 12.3976 122.912 18.0345H115.718C115.781 22.3876 116.918 24.7532 119.22 24.7532ZM115.749 16.8609H121.525C121.788 12.6365 120.515 10.7436 118.9 10.7436C117.233 10.7488 115.875 12.8938 115.749 16.8609Z" fill="white"/>
<path d="M125.246 30.7129L125.088 29.324C125.405 29.4115 125.733 29.4583 126.062 29.4631C127.136 29.4631 127.9 28.4129 128.365 26.6565L128.491 26.1839L124.552 9.84812H126.033L128.556 20.224C128.838 21.4053 129.057 22.6007 129.213 23.8052H129.307C129.525 22.545 129.78 21.3766 130.063 20.2109L132.523 9.83499H133.849L129.788 26.5488C129.249 28.6939 128.304 30.7759 126.065 30.7759C125.79 30.7756 125.517 30.7546 125.246 30.7129Z" fill="white"/>
</svg>
